<svg width="261" height="193" viewBox="0 0 261 193" fill="none" xmlns="http://www.w3.org/2000/svg">
<g clip-path="url(#clip0_5558_12499)" filter="url(#filter0_d_5558_12499)">
<path d="M40.3797 39.1152C36.5874 53.4061 33.7432 67.9573 31.916 82.6386C30.0371 81.6234 27.9427 80.3826 25.8138 78.9856V78.9813C-3.49447 59.7836 9.74404 42.2433 40.3797 39.1152Z" fill="#FF917A"/>
<g opacity="0.2118">
<path d="M40.3796 39.1152C36.5873 53.4061 33.7431 67.9573 31.9159 82.6386C30.037 81.6234 27.9426 80.3826 25.8138 78.9856V78.9813C18.6731 74.2047 10.7567 67.6362 9.49404 59.3758C19.5091 68.3911 30.3947 46.7596 35.4496 39.9135C37.1691 39.5925 38.8325 39.3322 40.3796 39.1152Z" fill="#2E2E2E"/>
</g>
<path d="M127.034 176.746C120.76 176.746 113.236 173.632 106.822 170.979C105.345 170.368 103.949 169.79 102.644 169.282C102.014 169.036 101.584 168.444 101.545 167.765C101.393 165.142 102.424 162.507 104.374 160.537C106.38 158.512 109.071 157.434 111.773 157.587C112.724 157.64 113.452 158.459 113.399 159.416C113.346 160.373 112.537 161.106 111.582 161.053C109.867 160.957 108.128 161.662 106.815 162.988C105.83 163.982 105.208 165.22 105.03 166.496C106.024 166.896 107.056 167.323 108.132 167.768C116.441 171.205 126.781 175.484 132.102 172.002C134.584 170.378 135.917 166.953 136.061 161.821C136.088 160.863 136.884 160.124 137.833 160.135C138.785 160.162 139.535 160.961 139.507 161.919C139.328 168.26 137.469 172.631 133.98 174.913C131.987 176.218 129.616 176.746 127.034 176.746Z" fill="#2E2E2E"/>
<g opacity="0.6">
<path d="M40.3796 39.1152C39.9272 40.8289 39.4833 42.547 39.0567 44.265C27.3738 45.9873 14.006 49.3106 9.99397 61.6492C5.21483 46.1305 27.4816 40.855 40.3796 39.1152Z" fill="white"/>
</g>
<path d="M31.9418 84.3739C31.6686 84.3739 31.3963 84.3088 31.1463 84.1778C23.0308 79.9296 16.8959 75.2345 12.9097 70.2236C8.95801 65.2552 7.3437 60.1367 8.24178 55.4208C10.0664 45.8406 21.7277 39.2687 40.2366 37.3884C40.7994 37.3303 41.3553 37.5559 41.7225 37.9906C42.0896 38.4244 42.2215 39.0127 42.075 39.5637C38.3051 53.7348 35.4712 68.2999 33.6518 82.8554C33.5811 83.4186 33.2415 83.9114 32.7417 84.1752C32.4917 84.3079 32.2168 84.3739 31.9418 84.3739ZM38.1 41.129C22.8748 43.1143 13.0476 48.6241 11.6281 56.0741C10.1896 63.6283 17.2304 72.4431 30.5542 79.9157C32.2874 66.883 34.8205 53.8581 38.1 41.129Z" fill="#2E2E2E"/>
<path d="M247.322 94.3958C232.959 141.759 185.413 167.633 140.117 179.26C136.63 179.542 133.135 179.113 129.817 177.963C100.892 168.119 71.7393 156.201 51.4333 133.303C51.429 133.303 51.429 133.299 51.4247 133.294V133.29C39.0825 119.836 29.7268 103.389 26.6283 85.2633C26.2706 83.1852 25.9991 81.0767 25.8095 78.9769C24.6374 65.9008 26.6197 52.4212 32.2607 40.5469C51.9203 -1.01122 112.881 -7.60567 138.031 35.7485C138.035 35.7398 138.044 35.7312 138.044 35.7268C157.553 1.42265 203.176 -2.92014 230.545 22.3557C249.869 40.1737 254.648 69.7924 247.322 94.3958Z" fill="#2E2E2E"/>
<path d="M135.984 181C135.836 181 135.688 180.981 135.544 180.943C97.9293 170.953 69.1804 155.285 50.0948 134.373C38.3232 122.085 29.7441 106.269 25.9638 89.8707C21.8725 72.1203 23.5213 54.8142 30.7292 39.8179C36.8442 26.2637 47.3282 15.9651 61.0502 10.0353C73.5966 4.61222 87.9341 3.32109 101.421 6.39706C113.949 9.2535 124.625 15.5634 132.297 24.6437C140.593 34.4643 144.916 47.2115 144.825 61.5579C154.595 68.7832 157.996 81.6554 153.842 95.6287C174.664 108.334 195.859 123.497 216.865 140.717C217.255 141.037 217.487 141.512 217.5 142.019C217.513 142.525 217.304 143.012 216.93 143.352C199.463 159.197 161.202 178.662 136.143 180.993C136.09 180.997 136.037 181 135.984 181ZM86.7938 8.24785C66.574 8.24785 44.4702 17.7352 33.8604 41.273C33.8544 41.2861 33.8483 41.2991 33.8423 41.3121C20.4366 69.1771 28.1522 106.467 52.6055 131.994C71.2161 152.385 99.3075 167.687 136.128 177.508C159.837 175.18 195.5 157.269 213.105 142.114C192.355 125.214 171.435 110.343 150.902 97.896C150.212 97.4777 149.902 96.6326 150.156 95.8621C153.597 85.4324 153.291 71.5537 142.12 63.8816C141.639 63.5519 141.356 62.9992 141.367 62.4143C141.984 30.5944 120.744 14.3633 100.661 9.78366C96.2616 8.77974 91.5798 8.24785 86.7938 8.24785Z" fill="#2E2E2E"/>
<path d="M215.751 142.062C198.147 158.024 160.246 176.991 135.984 179.265C104.784 171.009 73.2086 157.108 51.4375 133.303C51.4332 133.303 51.4332 133.299 51.4288 133.294V133.29C48.2873 128.474 47.1324 121.876 46.7531 115.715C34.9238 110.014 28.2097 97.9663 26.6325 85.2676C26.5334 84.695 26.417 83.9791 26.3394 83.4021H26.3351C24.2364 68.9507 25.9947 53.7748 32.2649 40.5555C57.3672 -13.4192 144.327 -1.39736 143.064 62.4474C154.126 70.0353 155.906 83.8533 151.765 96.4088C174.17 109.988 195.454 125.424 215.751 142.062Z" fill="white"/>
<path d="M108.559 46.6813C102.845 52.5643 93.9326 54.8853 85.9085 53.7573C82.1852 46.7898 70.5239 29.6269 78.9359 23.6268C86.9945 18.8198 97.0311 17.6657 105.452 18.8241C114.484 25.5097 116.932 38.3385 108.559 46.6813Z" fill="#8C8C8C"/>
<path d="M194.898 125.68C188.473 141.186 168.447 157.607 152.153 146.175C144.792 140.535 145.21 131.784 149.296 124.314C152.515 116.379 146.671 112.3 139.147 112.101C144.323 107.693 148.809 102.526 152.433 96.8079C167.025 105.689 181.147 115.35 194.898 125.68Z" fill="#F97E2B"/>
<path d="M137.759 161.872C137.135 183.985 115.937 172.614 103.241 167.664C102.978 163.074 107.141 159.069 111.653 159.321C115.036 159.473 117.923 161.685 121.039 163.017C126.37 165.295 132.717 164.792 137.759 161.872Z" fill="#FF917A"/>
<path d="M156.954 92.2135C156.22 94.4547 155.204 96.5979 154.005 98.6249C153.701 99.129 153.389 99.6288 153.071 100.124L152.073 101.58L151.003 102.982L149.88 104.339C148.331 106.102 146.646 107.74 144.817 109.186C142.994 110.637 141.043 111.92 138.965 112.935C138.632 113.098 138.231 112.957 138.069 112.622C137.937 112.349 138.005 112.031 138.215 111.835L138.217 111.832C139.858 110.294 141.437 108.743 142.92 107.12C144.397 105.492 145.798 103.814 147.083 102.057L148.038 100.735L148.949 99.385L149.832 98.0192C150.107 97.5515 150.389 97.0882 150.678 96.6301C151.782 94.7636 152.788 92.8452 153.766 90.8946L153.77 90.8859C154.2 90.0278 155.24 89.6842 156.092 90.1163C156.865 90.5094 157.218 91.4092 156.954 92.2135Z" fill="#2E2E2E"/>
<path d="M107.128 42.5642C101.078 38.3776 94.7646 34.5858 88.2315 31.2148C86.5681 30.0217 84.3143 30.6812 83.9178 32.8157C84.547 47.0458 96.2212 51.9873 107.128 42.5642Z" fill="#FFA86E"/>
<g opacity="0.2">
<path d="M210.119 137.494C192.011 122.99 173.14 109.454 153.377 97.3892C152.976 96.5605 152.58 95.7362 152.183 94.9032C155.889 82.6297 153.597 69.7402 143.069 62.4386C143.073 57.3626 142.491 52.2128 141.345 47.1542C141.522 58.6728 143.172 70.174 146.111 81.3022C140.216 68.2781 139.91 54.1 139.333 40.0738C136.868 31.2581 129.227 23.6398 123.319 18.5854C127.93 24.5161 131.817 31.0498 134.89 38.0347C124.172 63.3062 155.678 84.9378 133.536 111.229C129.46 116.604 121.798 120.565 115.691 123.39C96.26 132.379 49.1193 145.03 50.3389 112.821C38.1045 108.665 30.5285 93.5496 26.3354 83.389C26.413 83.966 26.5337 84.6818 26.6285 85.2545C29.3133 103.363 39.3326 119.81 51.4249 133.281V133.286C51.4292 133.29 51.4292 133.294 51.4335 133.294C73.196 157.091 104.793 171.004 135.98 179.256C160.16 177.017 198.156 158.015 215.747 142.058C213.881 140.526 212.002 139.008 210.119 137.494ZM182.233 152.778C172.446 159.082 158.462 166.071 146.874 161.694C137.928 156.297 141.5 143.073 135.596 135.542C136.665 147.542 132.381 163.807 117.329 161.169C110.528 159.581 102.612 157.282 96.5616 153.069C92.0885 149.954 93.0926 142.991 98.2725 141.325C109.356 137.763 119.583 131.494 127.749 123.142C126.383 123.52 125.03 123.919 123.676 124.331C135.165 118.895 145.107 110.105 152.166 99.4326C160.048 115.155 164.53 134.7 181.487 143.103C185.271 145.047 185.706 150.323 182.233 152.778Z" fill="#2E2E2E"/>
</g>
<path d="M251.08 75.6754C249.317 96.0314 240.198 115.502 226.706 130.674C222.732 135.494 216.406 136.869 209.981 137.39C192.006 138.895 172.433 129.876 166.236 112.166C162.931 107.815 158.837 103.724 155.79 98.8558C143.383 80.2091 134.85 55.9745 139.393 33.6791C153.527 13.2146 175.635 2.03444 199.229 6.83277L199.233 6.83712C231.084 11.297 253.683 43.7877 251.08 75.6754Z" fill="white"/>
<g opacity="0.2">
<path d="M251.08 75.6753C247.296 107.979 227.611 150.023 189.615 134.756C179.07 131.19 169.58 122.249 166.068 111.663C149.098 94.4088 129.981 54.2086 141.354 30.9979C136.95 51.4537 151.765 67.3325 167.585 47.8701C174.476 38.6379 177.855 26.4685 187.072 19.6008C191.808 16.1387 198.885 13.4445 199.669 6.8457C204.913 9.70041 203.681 19.5097 200.897 23.6919C191.347 38.8592 189.068 46.7595 183.392 67.3541C179.63 81.0116 164.956 84.6559 158.32 74.3651C143.082 76.6775 157.195 106.882 178.186 90.2048C161.233 118.479 226.4 144.956 227.801 109.94C249.227 107.003 254.049 53.5839 240.906 35.0283C248.279 46.5816 252.119 61.4365 251.08 75.6753Z" fill="#2E2E2E"/>
</g>
<path d="M202.724 13.4878C200.061 22.3339 190.356 20.1517 184.792 39.8179C182.862 46.6466 180.961 53.471 178.565 60.1523C170.222 83.389 143.637 73.8444 139.897 61.7662C138.164 53.2801 137.665 44.6726 138.699 36.3472C152.002 10.4683 179.341 2.72412 199.225 6.83264C201.379 8.48125 203.025 10.7416 202.724 13.4878Z" fill="#F97E2B"/>
<g filter="url(#filter1_d_5558_12499)">
<path d="M135.984 180.996C135.836 180.996 135.688 180.976 135.545 180.938C97.9285 170.948 69.1796 155.28 50.0949 134.369C38.3233 122.081 29.7441 106.266 25.9639 89.8671C21.8708 72.1098 23.5222 54.795 30.7396 39.7953C40.5685 19.0141 61.2244 5.48242 84.64 4.49152C106.467 3.56222 126.232 13.9546 138.046 32.4112C147.199 17.8462 161.512 8.28246 178.645 5.36181C197.374 2.16784 216.281 7.49633 230.515 19.9807C249.729 36.6811 257.229 66.5523 249.171 94.3062C249.169 94.3132 249.167 94.3201 249.165 94.3262C242.308 116.928 227.007 137.168 204.916 152.857C185.511 166.639 161.136 176.623 136.28 180.97C136.181 180.987 136.082 180.996 135.984 180.996ZM87.311 7.90501C86.4715 7.90501 85.6303 7.92323 84.7848 7.95881C62.6491 8.89592 43.1309 21.6709 33.8475 41.2972C20.4367 69.1727 28.1531 106.463 52.6056 131.99C71.2033 152.367 99.2713 167.663 136.06 177.485C177.231 170.183 230.543 143.805 245.865 93.3214C253.547 66.8525 246.471 38.433 228.256 22.602C214.799 10.7988 196.927 5.76442 179.22 8.78311C162.17 11.6899 148.085 21.5738 139.557 36.6126C139.252 37.1514 138.685 37.4846 138.069 37.4881C138.066 37.4881 138.064 37.4881 138.06 37.4881C137.448 37.4881 136.88 37.161 136.572 36.6273C126.065 18.5091 107.784 7.90501 87.311 7.90501Z" fill="#2E2E2E"/>
</g>
<path d="M108.585 46.6814C102.87 52.5643 93.9584 54.8854 85.9343 53.7574C82.3704 47.3539 70.5109 29.0456 78.9616 23.6268C87.059 18.8329 96.8371 17.6658 105.477 18.8242C114.566 25.6659 116.966 38.1997 108.585 46.6814Z" fill="#FF917A"/>
<g opacity="0.6">
<path d="M90.9248 21.8351C91.1575 22.5032 89.5716 23.6833 87.3781 24.4685C85.4303 25.167 83.6548 25.3232 83.1204 24.8807C80.4012 26.6291 78.5395 28.9328 78.4188 32.0478C78.742 35.5186 79.1859 38.9806 79.7548 42.421C77.7897 36.8244 72.5925 27.9957 78.9618 23.6355C86.5723 19.0932 95.9495 17.8177 104.06 18.6593C100.819 19.4489 95.6436 20.2168 90.7826 21.6398C90.8515 21.6962 90.8989 21.7613 90.9248 21.8351Z" fill="white"/>
</g>
<g opacity="0.2">
<path d="M108.585 46.6815C102.871 52.5645 93.9587 54.8855 85.9346 53.7575C81.7889 46.9852 77.9535 39.9612 76.3073 32.165C84.5857 45.2628 104.762 45.9396 113.829 33.3538C114.015 38.2085 111.972 43.1587 108.585 46.6815Z" fill="#2E2E2E"/>
</g>
<path d="M180.893 79.7275C181.302 55.6231 216.919 55.6231 217.324 79.7275C216.919 103.836 181.302 103.832 180.893 79.7275Z" fill="#F97E2B"/>
<path d="M86.0889 55.6291C84.4789 53.2386 82.8146 50.8143 81.2744 48.3023C79.723 45.7947 78.2751 43.1994 77.0262 40.4601C75.8075 37.7139 74.7155 34.8314 74.3535 31.6062C74.1992 30.0019 74.1984 28.2726 74.7819 26.5554C74.9344 26.1302 75.0784 25.7033 75.3094 25.2999C75.4179 25.0977 75.5153 24.8894 75.6386 24.6951L76.0368 24.1276L76.2393 23.8473C76.3126 23.7588 76.3936 23.6773 76.4712 23.5922L76.9452 23.0924C77.2727 22.7757 77.6399 22.5137 77.9907 22.2308C78.0088 22.2161 78.0277 22.2031 78.0476 22.1918L78.0993 22.1614C80.2083 20.9137 82.4604 19.9471 84.759 19.1826C87.0577 18.4104 89.4278 17.9097 91.8041 17.5774C94.1846 17.2676 96.5815 17.1436 98.9637 17.239C101.345 17.3249 103.714 17.6104 106.03 18.1154C106.451 18.2073 106.718 18.6247 106.628 19.0481C106.545 19.4343 106.191 19.6928 105.811 19.6651H105.806C103.524 19.5028 101.244 19.4768 98.981 19.5974C96.7185 19.7284 94.4707 19.9878 92.2669 20.4295C90.0587 20.8486 87.9023 21.4725 85.8105 22.2308C83.7196 22.997 81.72 23.9723 79.8265 25.102L79.9342 25.0317C79.0215 25.6946 78.4052 26.5658 78.0605 27.6348C77.7123 28.6995 77.658 29.9663 77.7881 31.2583C77.9088 32.5563 78.2148 33.8857 78.5931 35.2124C78.9715 36.5408 79.4593 37.8632 79.9937 39.1725C81.0478 41.8025 82.3139 44.3864 83.6214 46.9661C84.9262 49.5527 86.3294 52.0959 87.5826 54.7927C87.7825 55.2239 87.5981 55.7367 87.1697 55.9389C86.7827 56.1211 86.3302 55.9875 86.0984 55.6421L86.0889 55.6291Z" fill="#2E2E2E"/>
<path d="M107.154 42.5684C88.3219 58.291 79.5479 31.3579 86.1413 30.5986C93.6656 33.141 100.418 38.3037 107.154 42.5684Z" fill="#F08484"/>
<path d="M95.9616 49.1465C94.2033 49.1465 92.4985 48.802 90.8903 48.1009C85.7086 45.8423 82.5481 40.2995 82.2206 32.892C82.2146 32.7593 82.224 32.6265 82.2482 32.4955C82.5335 30.9606 83.4815 29.7614 84.8511 29.2052C86.2396 28.6403 87.8349 28.8356 89.1432 29.7215C95.6823 33.102 102.07 36.9398 108.13 41.1325C108.571 41.4379 108.846 41.9316 108.874 42.4705C108.903 43.0084 108.682 43.5291 108.276 43.8805C104.265 47.3469 99.9771 49.1465 95.9616 49.1465ZM85.6767 32.9736C85.9948 38.8834 88.3865 43.2288 92.2607 44.9165C95.7746 46.4488 100.05 45.6211 104.226 42.6648C98.8429 39.0509 93.2165 35.7242 87.4712 32.7593C87.3971 32.7211 87.3255 32.6768 87.2566 32.6283C86.8972 32.3697 86.468 32.2916 86.1413 32.4252C85.9164 32.5163 85.7604 32.7003 85.6767 32.9736Z" fill="#2E2E2E"/>
<path d="M205.335 139.286C205.128 139.286 204.918 139.248 204.714 139.169C203.826 138.823 203.385 137.818 203.728 136.924C204.285 135.474 204.811 134.105 205.558 131.851C205.859 130.941 206.838 130.453 207.738 130.754C208.641 131.057 209.129 132.04 208.828 132.949C208.111 135.118 207.616 136.427 206.944 138.176C206.679 138.865 206.026 139.286 205.335 139.286Z" fill="#2E2E2E"/>
<path d="M74.9689 130.538C72.7375 130.538 70.4371 129.613 68.9194 127.417C68.3755 126.63 68.5677 125.549 69.3494 125.002C70.1312 124.454 71.2051 124.649 71.7489 125.435C72.9849 127.222 75.343 127.388 76.9349 126.636C77.6468 126.299 79.2352 125.272 78.6147 123.009C78.3915 122.195 78.7819 121.338 79.5412 120.977C80.2988 120.617 81.2064 120.859 81.6873 121.55C83.6903 124.425 86.9672 124.779 89.3649 124.151C91.7644 123.522 94.4552 121.605 94.8129 118.109C94.9103 117.156 95.748 116.459 96.7039 116.561C97.6511 116.659 98.3389 117.511 98.2415 118.465C97.7976 122.801 94.6543 126.351 90.2329 127.509C87.2171 128.3 84.1816 127.826 81.7666 126.312C81.1831 127.783 80.0282 129.008 78.3992 129.778C77.3667 130.266 76.1781 130.538 74.9689 130.538Z" fill="#2E2E2E"/>
<path d="M128 122.635C124.661 125.066 121.092 127.15 117.423 129.012C115.596 129.962 113.722 130.811 111.844 131.652C110.898 132.056 109.952 132.461 108.995 132.839C108.043 133.229 107.085 133.604 106.12 133.963C102.263 135.399 98.3379 136.663 94.3508 137.732C90.3664 138.808 86.3121 139.67 82.1897 140.226C80.1341 140.528 78.0501 140.697 75.9626 140.829L74.3896 140.879C73.8656 140.898 73.3407 140.908 72.8133 140.894L71.2334 140.874L69.6484 140.785C67.5359 140.636 65.4131 140.389 63.311 139.885L62.5224 139.708L61.7398 139.482L60.9581 139.253C60.6969 139.182 60.4375 139.097 60.1824 138.996L58.6439 138.423L57.1408 137.728C55.1671 136.752 53.2718 135.504 51.6566 133.911C50.0397 132.326 48.7116 130.443 47.7342 128.431C46.7517 126.417 46.1061 124.29 45.6924 122.162C45.2752 120.031 45.1098 117.89 45.0555 115.771V115.771L46.0018 117.259C43.0378 115.749 40.2393 113.867 37.7458 111.624C35.2472 109.387 33.0753 106.781 31.2903 103.946C29.5019 101.109 28.1005 98.0471 27.0542 94.887C26.5319 93.306 26.0975 91.7008 25.7364 90.0826C25.5786 89.273 25.3839 88.4539 25.2589 87.6522L25.0719 86.4496L24.9788 85.8482L24.9322 85.548C24.9141 85.3918 24.8986 85.214 24.8883 85.0474C24.8297 84.0946 25.5493 83.2747 26.4957 83.2148C27.3851 83.1593 28.1591 83.7961 28.297 84.6647L28.3332 84.8964C28.3384 84.9294 28.3358 84.951 28.3358 84.9944L28.3815 85.2877L28.4728 85.8734L28.6547 87.0457C28.7754 87.8274 28.9564 88.5676 29.1029 89.3303C29.4399 90.8383 29.8432 92.3282 30.325 93.7885C31.2912 96.7074 32.5763 99.5074 34.2001 102.084C35.8221 104.661 37.7829 107.012 40.0445 109.036C42.3009 111.065 44.8391 112.776 47.5558 114.161C48.1238 114.45 48.4642 115.012 48.4996 115.609L48.5013 115.649V115.65C48.7391 119.56 49.408 123.441 51.1007 126.726C51.9419 128.364 53.0313 129.832 54.3483 131.072C55.6549 132.322 57.2054 133.332 58.8792 134.134C60.5314 134.964 62.3569 135.494 64.2013 135.929C66.0509 136.368 67.9755 136.585 69.9078 136.715L71.3627 136.792L72.8262 136.804C73.3132 136.816 73.8027 136.805 74.2931 136.785L75.7626 136.74C77.7251 136.621 79.6911 136.473 81.6527 136.192C85.5795 135.681 89.4829 134.855 93.3511 133.873C97.2192 132.884 101.049 131.703 104.819 130.349C112.369 127.657 119.776 124.54 127.004 120.978L127.009 120.976C127.488 120.74 128.066 120.939 128.3 121.421C128.511 121.851 128.375 122.363 128 122.635Z" fill="#2E2E2E"/>
<path d="M135.794 134.153C136.225 136.125 136.739 138.133 137.192 140.149C137.658 142.166 138.084 144.2 138.462 146.249C138.826 148.301 139.169 150.366 139.391 152.457C139.625 154.547 139.794 156.657 139.8 158.792C139.812 160.926 139.719 163.089 139.338 165.267C138.955 167.435 138.34 169.659 137.095 171.727C136.471 172.753 135.678 173.726 134.715 174.538C133.757 175.355 132.619 175.97 131.449 176.372C129.082 177.179 126.676 177.128 124.464 176.804C124.416 176.797 124.369 176.787 124.323 176.776L124.295 176.769C118.564 175.334 112.902 173.599 107.351 171.527C101.807 169.437 96.3822 166.982 91.173 164.084C85.9742 161.177 80.964 157.829 76.4822 153.793C72.0039 149.775 67.9918 145.099 65.0787 139.721C64.6227 138.88 64.9313 137.825 65.7673 137.366C66.587 136.916 67.6092 137.206 68.0789 138.01L68.0832 138.017C70.9196 142.892 74.6861 147.208 78.9774 150.932C83.2808 154.648 88.0427 157.864 93.0623 160.635C98.0827 163.41 103.351 165.759 108.743 167.789C114.129 169.836 119.649 171.557 125.24 172.996L125.071 172.961C126.891 173.254 128.703 173.266 130.242 172.753C131.788 172.262 133.025 171.219 133.933 169.76C134.843 168.304 135.403 166.494 135.752 164.618C136.094 162.733 136.256 160.764 136.288 158.774C136.355 154.791 136.022 150.735 135.574 146.679C135.354 144.647 135.089 142.615 134.836 140.571C134.583 138.524 134.306 136.483 134.167 134.369C134.137 133.913 134.481 133.518 134.934 133.488C135.346 133.461 135.706 133.743 135.793 134.137L135.794 134.153Z" fill="#2E2E2E"/>
<g opacity="0.6">
<path d="M251.079 75.6753C250.584 86.4824 246.21 98.8644 241.655 108.439C262.124 58.6165 228.778 12.3773 189.002 10.9673C189.02 11.0193 189.028 11.0757 189.033 11.1278C189.196 12.8241 186.098 14.5118 182.112 14.9023C178.121 15.2927 174.755 14.2341 174.592 12.5421C174.587 12.5074 174.587 12.4771 174.587 12.4424C162.258 15.4315 149.851 23.0022 138.703 36.3082C149.791 13.8133 175.816 2.0908 199.224 6.82839L199.229 6.83273C231.084 11.297 253.682 43.7877 251.079 75.6753Z" fill="white"/>
</g>
<path d="M118.022 128.556C113.303 135.64 109.965 143.717 108.286 152.172C108.174 152.742 107.624 153.111 107.057 152.998C106.51 152.888 106.149 152.363 106.227 151.814C107.506 143.008 110.527 134.421 115.108 126.701L115.109 126.699C115.598 125.876 116.656 125.607 117.474 126.099C118.292 126.591 118.558 127.657 118.07 128.48C118.056 128.504 118.038 128.532 118.022 128.556Z" fill="#2E2E2E"/>
<path d="M74.5663 117.281C72.5194 119.52 77.5786 122.023 79.199 122.652C81.7329 123.511 83.1808 118.722 83.8919 116.925C83.8574 113.385 76.372 115.641 74.5663 117.281Z" fill="#2E2E2E"/>
<path d="M206.27 139.393C189.572 139.394 170.908 130.682 164.64 112.747L164.257 112.305C160.869 108.403 157.366 104.368 154.396 99.8388C140.361 79.1201 134.128 55.1128 137.31 33.9923C137.349 33.7294 137.448 33.4787 137.6 33.26C145.257 22.1987 154.436 14.1135 164.882 9.22754C175.697 4.1689 187.369 2.78667 199.573 5.1199C214.769 7.96853 228.746 16.9387 238.926 30.3784C249.154 43.8823 254.081 60.01 252.801 75.7942C251.722 95.6409 234.514 140.075 210.161 139.233C208.88 139.34 207.58 139.393 206.27 139.393ZM140.659 34.9121C137.746 55.0781 143.783 78.012 157.258 97.9039C160.114 102.26 163.54 106.204 166.853 110.02L167.457 110.717C167.605 110.887 167.718 111.084 167.79 111.298C173.866 129.223 193.604 137.176 209.972 135.765C210.044 135.759 210.115 135.757 210.188 135.759C210.403 135.768 210.62 135.773 210.834 135.773C223.054 135.773 232.591 121.922 237.232 113.563C243.806 101.723 248.793 86.1041 249.359 75.5816C249.36 75.5652 249.36 75.5495 249.362 75.533C251.866 44.8064 228.773 14.1231 198.935 8.52993C176.264 4.19754 155.582 13.5634 140.659 34.9121Z" fill="#2E2E2E"/>
<path d="M164.769 113.338C163.771 110.635 163.594 107.646 164.092 104.833C164.58 102.008 165.737 99.3433 167.356 97.0361C168.173 95.8856 169.115 94.8296 170.149 93.8812C171.201 92.9519 172.336 92.1154 173.571 91.4603C176.02 90.1258 178.822 89.4412 181.525 89.6269C181.914 89.6538 182.208 89.9931 182.182 90.3844C182.159 90.7098 181.922 90.9701 181.62 91.0326L181.612 91.0343C179.194 91.5332 176.988 92.5285 175.09 93.922C174.148 94.6274 173.263 95.4023 172.486 96.2795C171.692 97.1376 170.994 98.0817 170.386 99.0752C169.159 101.056 168.322 103.262 167.911 105.518C167.505 107.779 167.557 110.087 168.066 112.322L168.071 112.345C168.284 113.281 167.703 114.213 166.773 114.427C165.918 114.623 165.066 114.144 164.769 113.338Z" fill="#2E2E2E"/>
<path d="M191.09 78.1518C191.906 79.6937 192.88 81.0342 194.059 82.1648C195.231 83.2963 196.582 84.2195 198.045 84.9128C199.509 85.6018 201.084 86.0547 202.705 86.2291C204.33 86.4148 205.988 86.2959 207.69 85.9193L207.718 85.9133C208.222 85.8013 208.721 86.1224 208.831 86.63C208.916 87.0161 208.751 87.3988 208.446 87.6096C206.767 88.7645 204.694 89.3606 202.617 89.4413C200.534 89.5159 198.434 89.0717 196.537 88.197C194.637 87.325 192.93 86.0113 191.626 84.367C190.326 82.7271 189.425 80.7444 189.209 78.7001C189.151 78.15 189.547 77.6572 190.092 77.5982C190.508 77.5539 190.89 77.7734 191.075 78.1223L191.09 78.1518Z" fill="#2E2E2E"/>
<path d="M160.174 76.1013C160 76.1013 159.826 76.0996 159.65 76.0952C150.157 75.8809 140.568 69.6847 138.277 62.2833C138.26 62.2287 138.246 62.1731 138.234 62.1167C136.239 52.3483 135.926 42.8844 137.306 33.9888C137.347 33.7285 137.446 33.4803 137.596 33.2643C153.255 10.6644 175.844 0.404809 199.581 5.12678C199.836 5.17798 200.077 5.28644 200.285 5.44436C203.329 7.75763 204.812 10.6861 204.461 13.6909C204.449 13.7924 204.429 13.8931 204.399 13.9911C203.183 18.0372 200.66 20.0875 197.987 22.2576C194.088 25.4238 189.667 29.0135 186.476 40.2943L186.171 41.3702C184.368 47.7565 182.502 54.3605 180.212 60.7432C176.697 70.529 169.411 76.1013 160.174 76.1013ZM141.593 61.3289C143.494 67.2812 151.773 72.4457 159.728 72.6254C164.38 72.7364 172.799 71.1737 176.97 59.5614C179.219 53.2932 181.068 46.7482 182.856 40.4193L183.16 39.3425C186.652 27.0013 191.737 22.8728 195.823 19.5548C198.315 17.5304 200.129 16.0588 201.052 13.1408C201.215 11.0644 199.657 9.39062 198.511 8.45265C176.443 4.2296 155.395 13.8575 140.652 34.9198C139.41 43.2627 139.726 52.1452 141.593 61.3289Z" fill="#2E2E2E"/>
<path d="M236.737 114.224C235.738 114.224 234.931 113.912 234.377 113.603C231.127 111.791 229.812 106.443 230.621 102.584C230.819 101.646 231.732 101.048 232.664 101.245C233.596 101.443 234.191 102.364 233.995 103.301C233.415 106.067 234.432 109.665 236.048 110.567C236.835 111.007 237.856 110.627 239.08 109.437C239.765 108.773 240.856 108.792 241.517 109.482C242.178 110.172 242.158 111.272 241.473 111.936C239.662 113.694 238.036 114.224 236.737 114.224Z" fill="#2E2E2E"/>
<path d="M226.372 132.67C226.058 132.67 225.739 132.583 225.452 132.401C224.647 131.889 224.408 130.816 224.916 130.007C227.471 125.939 227.331 123.541 227.135 120.222C226.902 116.257 226.613 111.324 230.528 102.251C230.908 101.372 231.924 100.969 232.796 101.35C233.669 101.732 234.07 102.754 233.69 103.633C230.102 111.946 230.355 116.234 230.577 120.017C230.784 123.53 230.979 126.849 227.83 131.861C227.503 132.384 226.944 132.67 226.372 132.67Z" fill="#2E2E2E"/>
<path d="M206.305 111.446C209.908 114.023 211.773 116.218 221.642 120.301C230.287 123.876 214.29 139.19 203.465 133.937C193.062 129.043 196.604 105.489 206.305 111.446Z" fill="#2E2E2E"/>
<path d="M176.376 106.817C176.333 103.828 180.996 103.828 180.953 106.817C180.996 109.802 176.333 109.802 176.376 106.817Z" fill="#2E2E2E"/>
<path d="M183.396 112.123C183.353 109.134 188.016 109.134 187.973 112.123C188.016 115.112 183.353 115.112 183.396 112.123Z" fill="#2E2E2E"/>
<path d="M176.992 116.11C176.962 113.928 180.367 113.928 180.336 116.11C180.367 118.292 176.962 118.292 176.992 116.11Z" fill="#2E2E2E"/>
<g opacity="0.2">
<path d="M107.154 42.5684C103.112 45.614 99.2809 47.8657 94.394 47.4362C91.3774 43.2105 90.5802 37.8222 91.0887 32.7158C96.6177 35.6963 101.983 38.9892 107.154 42.5684Z" fill="#2E2E2E"/>
</g>
<g opacity="0.2">
<path d="M202.724 13.4878C200.061 22.3339 190.356 20.1517 184.792 39.8179C182.862 46.6466 180.961 53.471 178.565 60.1522C170.222 83.389 143.637 73.8444 139.897 61.7661C138.164 53.2801 137.665 44.6726 138.699 36.3471C139.194 61.9483 166.12 67.5103 174.497 42.0565C184.392 13.0713 193.006 25.5834 202.396 10.824C202.702 11.6613 202.832 12.555 202.724 13.4878Z" fill="#2E2E2E"/>
</g>
<path d="M106.502 86.9501C106.725 89.3076 106.167 91.758 105.072 93.909C103.977 96.0687 102.351 97.9481 100.405 99.3737C98.4627 100.802 96.1951 101.79 93.8249 102.19C91.4616 102.582 88.9854 102.391 86.8247 101.476C86.2765 101.244 86.0188 100.608 86.2489 100.056C86.4239 99.6358 86.8316 99.385 87.2573 99.3911L87.291 99.392C89.3 99.4223 91.1987 99.1716 92.9906 98.5841C94.7807 98.0106 96.4554 97.1334 97.9499 96.0158C99.4418 94.8938 100.756 93.5376 101.82 91.9879C102.888 90.4357 103.687 88.6977 104.252 86.7679L104.262 86.7323C104.442 86.1215 105.078 85.7718 105.685 85.9523C106.147 86.0894 106.458 86.4963 106.502 86.9501Z" fill="#2E2E2E"/>
<path d="M62.3583 109.889C61.9334 111.609 60.9078 113.189 59.5796 114.41C58.248 115.636 56.6095 116.517 54.8694 116.986C53.1301 117.458 51.2779 117.526 49.518 117.147C47.7649 116.767 46.0946 115.93 44.8655 114.675C44.501 114.303 44.5053 113.704 44.875 113.337C45.1405 113.075 45.5214 113.003 45.8507 113.12L45.8886 113.134C47.2676 113.631 48.6095 113.914 49.9584 113.965C51.3029 114.022 52.6388 113.857 53.9196 113.497C55.1995 113.132 56.4225 112.577 57.5395 111.835C58.6617 111.092 59.6606 110.163 60.5923 109.037L60.6207 109.002C60.9741 108.576 61.6042 108.517 62.0282 108.873C62.3316 109.128 62.4471 109.527 62.3583 109.889Z" fill="#2E2E2E"/>
</g>
<defs>
<filter id="filter0_d_5558_12499" x="0" y="0" width="261" height="193" filterUnits="userSpaceOnUse" color-interpolation-filters="sRGB">
<feFlood flood-opacity="0" result="BackgroundImageFix"/>
<feColorMatrix in="SourceAlpha" type="matrix" values="0 0 0 0 0 0 0 0 0 0 0 0 0 0 0 0 0 0 127 0" result="hardAlpha"/>
<feOffset dy="4"/>
<feGaussianBlur stdDeviation="4"/>
<feComposite in2="hardAlpha" operator="out"/>
<feColorMatrix type="matrix" values="0 0 0 0 0 0 0 0 0 0 0 0 0 0 0 0 0 0 0.16 0"/>
<feBlend mode="normal" in2="BackgroundImageFix" result="effect1_dropShadow_5558_12499"/>
<feBlend mode="normal" in="SourceGraphic" in2="effect1_dropShadow_5558_12499" result="shape"/>
</filter>
<filter id="filter1_d_5558_12499" x="19.7684" y="2.43408" width="236.603" height="184.562" filterUnits="userSpaceOnUse" color-interpolation-filters="sRGB">
<feFlood flood-opacity="0" result="BackgroundImageFix"/>
<feColorMatrix in="SourceAlpha" type="matrix" values="0 0 0 0 0 0 0 0 0 0 0 0 0 0 0 0 0 0 127 0" result="hardAlpha"/>
<feOffset dy="2"/>
<feGaussianBlur stdDeviation="2"/>
<feComposite in2="hardAlpha" operator="out"/>
<feColorMatrix type="matrix" values="0 0 0 0 0.227451 0 0 0 0 0.00392157 0 0 0 0 0.462745 0 0 0 0.1 0"/>
<feBlend mode="normal" in2="BackgroundImageFix" result="effect1_dropShadow_5558_12499"/>
<feBlend mode="normal" in="SourceGraphic" in2="effect1_dropShadow_5558_12499" result="shape"/>
</filter>
<clipPath id="clip0_5558_12499">
<rect width="245" height="177" fill="white" transform="translate(8 4)"/>
</clipPath>
</defs>
</svg>
