<svg width="375" height="501" viewBox="0 0 375 501" fill="none" xmlns="http://www.w3.org/2000/svg">
<path d="M-2.90292 452.932C-0.823153 449.761 -1.25415 445.802 -3.86556 444.089C-6.47697 442.376 -10.2799 443.559 -12.3597 446.729C-14.4394 449.9 -14.0085 453.859 -11.3971 455.572C-8.78565 457.285 -4.98268 456.103 -2.90292 452.932Z" fill="#7C54A7" fill-opacity="0.12"/>
<path d="M-3.60109 434.602C-1.52133 431.431 -1.95231 427.472 -4.56372 425.759C-7.17514 424.046 -10.9781 425.228 -13.0579 428.399C-15.1376 431.57 -14.7066 435.529 -12.0952 437.242C-9.4838 438.955 -5.68085 437.773 -3.60109 434.602Z" fill="#7C54A7" fill-opacity="0.12"/>
<path d="M24.7989 396.729C22.4923 400.245 17.7073 401.153 14.2616 398.664C13.5526 398.151 12.9591 397.531 12.4905 396.839C11.2687 395.037 9.74677 393.459 7.92534 392.264L7.43583 391.943C5.56188 390.714 3.4609 389.877 1.25754 389.464C0.215346 389.268 -0.803465 388.845 -1.72621 388.177C-4.80342 385.951 -5.68974 381.686 -3.75442 378.417C-2.4783 376.263 -0.304914 375.004 1.98513 374.804C5.27519 374.517 8.3711 373.105 10.8361 370.909C13.7004 368.355 17.8144 366.385 22.4282 369.412C26.9933 372.406 26.8172 376.981 25.627 380.64C24.5947 383.81 24.6325 387.222 25.6545 390.394C26.318 392.452 26.0763 394.781 24.7989 396.729Z" fill="#7C54A7" fill-opacity="0.12"/>
<path d="M9.24387 367.046C11.3236 363.876 10.8927 359.916 8.28124 358.204C5.66983 356.491 1.86687 357.673 -0.212895 360.844C-2.29266 364.015 -1.86166 367.974 0.749749 369.687C3.36116 371.399 7.16411 370.217 9.24387 367.046Z" fill="#7C54A7" fill-opacity="0.12"/>
<path d="M26.3337 360.383C28.4135 357.212 27.9825 353.253 25.3711 351.54C22.7597 349.827 18.9567 351.009 16.8769 354.18C14.7972 357.351 15.2282 361.31 17.8396 363.023C20.451 364.736 24.2539 363.554 26.3337 360.383Z" fill="#7C54A7" fill-opacity="0.12"/>
<path d="M39.3027 386.761C41.3824 383.59 40.9514 379.631 38.34 377.918C35.7286 376.206 31.9257 377.388 29.8459 380.559C27.7661 383.729 28.1971 387.689 30.8085 389.401C33.4199 391.114 37.2229 389.932 39.3027 386.761Z" fill="#7C54A7" fill-opacity="0.12"/>
<path d="M38.6047 368.431C40.6845 365.26 40.2535 361.301 37.6421 359.588C35.0307 357.875 31.2277 359.058 29.148 362.228C27.0682 365.399 27.4992 369.358 30.1106 371.071C32.722 372.784 36.525 371.602 38.6047 368.431Z" fill="#7C54A7" fill-opacity="0.12"/>
<path d="M-1.80549 317.945C-4.11212 321.462 -8.89711 322.369 -12.3428 319.881C-13.0519 319.368 -13.6454 318.747 -14.1139 318.055C-15.3358 316.253 -16.8577 314.675 -18.6791 313.481L-19.1686 313.16C-21.0426 311.93 -23.1435 311.093 -25.3469 310.68C-26.3891 310.485 -27.4079 310.062 -28.3306 309.393C-31.4079 307.168 -32.2942 302.903 -30.3589 299.634C-29.0827 297.48 -26.9093 296.22 -24.6193 296.02C-21.3292 295.734 -18.2333 294.321 -15.7684 292.125C-12.904 289.572 -8.79007 287.601 -4.17624 290.629C0.388904 293.623 0.212786 298.198 -0.977481 301.856C-2.00975 305.027 -1.97195 308.439 -0.949933 311.611C-0.286434 313.668 -0.526434 315.997 -1.80549 317.945Z" fill="#7C54A7" fill-opacity="0.12"/>
<path d="M-0.269731 281.6C1.81003 278.429 1.37906 274.47 -1.23236 272.757C-3.84377 271.045 -7.64671 272.227 -9.72648 275.398C-11.8062 278.569 -11.3753 282.528 -8.76385 284.24C-6.15243 285.953 -2.34949 284.771 -0.269731 281.6Z" fill="#7C54A7" fill-opacity="0.12"/>
<path d="M12.6993 307.979C14.779 304.808 14.348 300.849 11.7366 299.136C9.12521 297.423 5.32226 298.605 3.2425 301.776C1.16273 304.947 1.59371 308.906 4.20512 310.619C6.81654 312.332 10.6195 311.15 12.6993 307.979Z" fill="#7C54A7" fill-opacity="0.12"/>
<path d="M12.0013 289.649C14.0811 286.478 13.6501 282.519 11.0387 280.806C8.42727 279.093 4.62431 280.275 2.54455 283.446C0.464785 286.617 0.89578 290.576 3.50719 292.289C6.1186 294.002 9.92155 292.819 12.0013 289.649Z" fill="#7C54A7" fill-opacity="0.12"/>
<path d="M72.3186 312.277C70.012 315.794 65.227 316.701 61.7813 314.213C61.0722 313.7 60.4788 313.079 60.0102 312.387C58.7883 310.586 57.2664 309.008 55.445 307.813L54.9555 307.492C53.0815 306.263 50.9806 305.426 48.7772 305.012C47.735 304.817 46.7162 304.394 45.7935 303.726C42.7163 301.5 41.8299 297.235 43.7653 293.966C45.0414 291.812 47.2148 290.553 49.5048 290.353C52.7949 290.066 55.8908 288.653 58.3557 286.457C61.2201 283.904 65.3341 281.933 69.9479 284.961C74.513 287.955 74.3369 292.53 73.1466 296.189C72.1144 299.359 72.1522 302.771 73.1742 305.943C73.8377 308.001 73.5977 310.33 72.3186 312.277Z" fill="#7C54A7" fill-opacity="0.12"/>
<path d="M56.764 282.597C58.8438 279.426 58.4128 275.467 55.8014 273.754C53.19 272.041 49.387 273.223 47.3073 276.394C45.2275 279.565 45.6585 283.524 48.2699 285.237C50.8813 286.95 54.6843 285.768 56.764 282.597Z" fill="#7C54A7" fill-opacity="0.12"/>
<path d="M73.8539 275.933C75.9336 272.762 75.5027 268.803 72.8912 267.09C70.2798 265.377 66.4769 266.559 64.3971 269.73C62.3174 272.901 62.7483 276.86 65.3598 278.573C67.9712 280.286 71.7741 279.104 73.8539 275.933Z" fill="#7C54A7" fill-opacity="0.12"/>
<path d="M86.8228 302.311C88.9026 299.14 88.4716 295.181 85.8602 293.469C83.2488 291.756 79.4458 292.938 77.3661 296.109C75.2863 299.28 75.7173 303.239 78.3287 304.952C80.9401 306.664 84.7431 305.482 86.8228 302.311Z" fill="#7C54A7" fill-opacity="0.12"/>
<path d="M86.1249 283.981C88.2047 280.81 87.7737 276.851 85.1623 275.139C82.5509 273.426 78.7479 274.608 76.6681 277.779C74.5884 280.95 75.0194 284.909 77.6308 286.622C80.2422 288.334 84.0451 287.152 86.1249 283.981Z" fill="#7C54A7" fill-opacity="0.12"/>
<path d="M42.5218 242.981C39.312 245.697 34.4653 245.207 31.8697 241.841C31.3356 241.149 30.9428 240.385 30.6898 239.586C30.0317 237.511 29.0196 235.566 27.6128 233.904L27.2349 233.456C25.7869 231.745 24.0099 230.345 22.0155 229.322C21.0715 228.84 20.2155 228.143 19.5199 227.241C17.2016 224.232 17.5641 219.89 20.3499 217.308C22.1861 215.606 24.6276 215.017 26.8804 215.476C30.117 216.137 33.4858 215.662 36.4744 214.257C39.9453 212.623 44.4498 211.903 48.0144 216.115C51.541 220.285 50.0701 224.619 47.8908 227.788C46.0007 230.533 45.0665 233.817 45.1455 237.148C45.1924 239.312 44.301 241.475 42.5218 242.981Z" fill="#7C54A7" fill-opacity="0.12"/>
<path d="M36.046 210.097C38.9412 207.648 39.6531 203.73 37.6361 201.345C35.6191 198.961 31.637 199.014 28.7418 201.463C25.8466 203.912 25.1348 207.83 27.1518 210.215C29.1688 212.599 33.1509 212.546 36.046 210.097Z" fill="#7C54A7" fill-opacity="0.12"/>
<path d="M54.3236 208.565C57.2188 206.116 57.9307 202.197 55.9137 199.813C53.8967 197.429 49.9146 197.481 47.0194 199.931C44.1242 202.38 43.4123 206.298 45.4293 208.682C47.4463 211.067 51.4284 211.014 54.3236 208.565Z" fill="#7C54A7" fill-opacity="0.12"/>
<path d="M59.2616 237.541C62.1567 235.092 62.8686 231.174 60.8516 228.789C58.8346 226.405 54.8525 226.458 51.9573 228.907C49.0622 231.356 48.3503 235.274 50.3673 237.658C52.3843 240.043 56.3664 239.99 59.2616 237.541Z" fill="#7C54A7" fill-opacity="0.12"/>
<path d="M63.8022 219.77C66.6973 217.32 67.4092 213.402 65.3922 211.018C63.3752 208.633 59.3931 208.686 56.4979 211.135C53.6028 213.584 52.8909 217.503 54.9079 219.887C56.9249 222.271 60.907 222.219 63.8022 219.77Z" fill="#7C54A7" fill-opacity="0.12"/>
<path d="M116.536 261.652C113.326 264.368 108.479 263.878 105.884 260.513C105.35 259.82 104.957 259.056 104.704 258.258C104.046 256.182 103.034 254.237 101.627 252.575L101.249 252.128C99.801 250.416 98.024 249.016 96.0296 247.994C95.0856 247.511 94.2296 246.815 93.534 245.912C91.2157 242.903 91.5782 238.562 94.3639 235.98C96.2002 234.277 98.6417 233.688 100.893 234.147C104.129 234.808 107.498 234.333 110.487 232.928C113.958 231.294 118.462 230.574 122.027 234.787C125.553 238.957 124.082 243.291 121.903 246.46C120.013 249.204 119.079 252.489 119.158 255.82C119.206 257.984 118.315 260.147 116.536 261.652Z" fill="#7C54A7" fill-opacity="0.12"/>
<path d="M110.06 228.767C112.955 226.317 113.667 222.399 111.65 220.015C109.633 217.631 105.65 217.683 102.755 220.132C99.8601 222.581 99.1482 226.5 101.165 228.884C103.182 231.268 107.164 231.216 110.06 228.767Z" fill="#7C54A7" fill-opacity="0.12"/>
<path d="M128.337 227.234C131.232 224.785 131.944 220.867 129.927 218.482C127.91 216.098 123.928 216.151 121.033 218.6C118.137 221.049 117.426 224.967 119.443 227.352C121.46 229.736 125.442 229.683 128.337 227.234Z" fill="#7C54A7" fill-opacity="0.12"/>
<path d="M133.275 256.21C136.17 253.761 136.882 249.843 134.865 247.458C132.848 245.074 128.866 245.127 125.971 247.576C123.075 250.025 122.364 253.943 124.381 256.328C126.398 258.712 130.38 258.659 133.275 256.21Z" fill="#7C54A7" fill-opacity="0.12"/>
<path d="M137.816 238.439C140.711 235.99 141.423 232.071 139.406 229.687C137.389 227.303 133.407 227.355 130.511 229.805C127.616 232.254 126.904 236.172 128.921 238.556C130.938 240.941 134.92 240.888 137.816 238.439Z" fill="#7C54A7" fill-opacity="0.12"/>
<path d="M317.453 218.482C313.92 220.76 309.177 219.652 307.036 215.98C306.596 215.224 306.305 214.415 306.157 213.593C305.772 211.45 305.019 209.391 303.839 207.561L303.52 207.068C302.305 205.185 300.724 203.566 298.876 202.297C298.002 201.697 297.243 200.897 296.67 199.913C294.759 196.63 295.678 192.373 298.771 190.169C300.812 188.717 303.309 188.448 305.483 189.194C308.608 190.266 312.009 190.229 315.155 189.221C318.807 188.049 323.368 187.914 326.359 192.553C329.319 197.141 327.303 201.251 324.731 204.112C322.502 206.591 321.154 209.725 320.802 213.041C320.575 215.187 319.411 217.218 317.453 218.482Z" fill="#7C54A7" fill-opacity="0.12"/>
<path d="M315.251 185.03C318.438 182.975 319.648 179.181 317.955 176.556C316.262 173.932 312.307 173.471 309.12 175.527C305.934 177.583 304.723 181.377 306.416 184.001C308.109 186.625 312.065 187.086 315.251 185.03Z" fill="#7C54A7" fill-opacity="0.12"/>
<path d="M333.574 185.867C336.76 183.812 337.971 180.018 336.278 177.394C334.585 174.769 330.629 174.309 327.443 176.364C324.256 178.42 323.046 182.214 324.739 184.838C326.432 187.462 330.387 187.923 333.574 185.867Z" fill="#7C54A7" fill-opacity="0.12"/>
<path d="M334.738 215.235C337.924 213.179 339.135 209.385 337.442 206.761C335.749 204.137 331.793 203.676 328.607 205.732C325.42 207.788 324.21 211.581 325.903 214.206C327.596 216.83 331.551 217.291 334.738 215.235Z" fill="#7C54A7" fill-opacity="0.12"/>
<path d="M341.529 198.198C344.715 196.142 345.926 192.348 344.233 189.724C342.54 187.1 338.584 186.639 335.398 188.695C332.211 190.751 331.001 194.545 332.694 197.169C334.387 199.793 338.342 200.254 341.529 198.198Z" fill="#7C54A7" fill-opacity="0.12"/>
<path d="M374.834 159.649C372.358 163.047 367.533 163.719 364.215 161.061C363.532 160.513 362.97 159.864 362.537 159.149C361.406 157.288 359.962 155.637 358.204 154.355L357.729 154.009C355.918 152.689 353.861 151.749 351.681 151.229C350.649 150.982 349.653 150.509 348.763 149.798C345.8 147.423 345.125 143.118 347.219 139.95C348.599 137.861 350.832 136.712 353.129 136.624C356.429 136.501 359.59 135.243 362.162 133.17C365.149 130.762 369.355 128.996 373.814 132.248C378.227 135.464 377.823 140.024 376.454 143.618C375.267 146.734 375.138 150.143 376.001 153.362C376.562 155.452 376.208 157.765 374.834 159.649Z" fill="#7C54A7" fill-opacity="0.12"/>
<path d="M360.756 129.221C362.989 126.156 362.754 122.181 360.23 120.341C357.706 118.502 353.85 119.495 351.616 122.56C349.382 125.624 349.618 129.6 352.142 131.439C354.665 133.279 358.522 132.285 360.756 129.221Z" fill="#7C54A7" fill-opacity="0.12"/>
<path d="M378.152 123.408C380.386 120.343 380.151 116.367 377.627 114.528C375.103 112.689 371.246 113.682 369.013 116.746C366.779 119.811 367.014 123.787 369.538 125.626C372.062 127.465 375.919 126.472 378.152 123.408Z" fill="#7C54A7" fill-opacity="0.12"/>
<path d="M338.156 103.437C335.872 106.967 331.091 107.904 327.632 105.437C326.92 104.928 326.324 104.312 325.85 103.621C324.617 101.827 323.084 100.258 321.256 99.0757L320.764 98.7572C318.881 97.5389 316.776 96.7154 314.57 96.3156C313.527 96.1276 312.506 95.7102 311.577 95.0485C308.486 92.8422 307.574 88.5827 309.49 85.3029C310.754 83.1405 312.919 81.8686 315.208 81.6542C318.496 81.3484 321.583 79.9176 324.035 77.7059C326.884 75.1362 330.985 73.139 335.618 76.1372C340.203 79.1037 340.054 83.6782 338.885 87.345C337.872 90.5204 337.932 93.9337 338.973 97.0997C339.647 99.1496 339.422 101.479 338.156 103.437Z" fill="#7C54A7" fill-opacity="0.12"/>
<path d="M322.446 73.8645C324.506 70.6809 324.051 66.7245 321.429 65.0276C318.808 63.3307 315.012 64.5359 312.951 67.7195C310.891 70.9031 311.346 74.8595 313.968 76.5564C316.59 78.2533 320.385 77.0481 322.446 73.8645Z" fill="#7C54A7" fill-opacity="0.12"/>
<path d="M339.494 67.096C341.555 63.9124 341.1 59.9559 338.478 58.259C335.856 56.5621 332.06 57.7674 330 60.9509C327.94 64.1345 328.395 68.0909 331.016 69.7878C333.638 71.4847 337.434 70.2795 339.494 67.096Z" fill="#7C54A7" fill-opacity="0.12"/>
<path d="M352.624 93.3958C354.685 90.2122 354.23 86.2557 351.608 84.5588C348.986 82.8619 345.19 84.0672 343.13 87.2508C341.069 90.4343 341.524 94.3907 344.146 96.0876C346.768 97.7845 350.564 96.5794 352.624 93.3958Z" fill="#7C54A7" fill-opacity="0.12"/>
<path d="M351.815 75.0691C353.875 71.8855 353.42 67.9291 350.799 66.2322C348.177 64.5353 344.381 65.7405 342.32 68.9241C340.26 72.1077 340.715 76.0641 343.337 77.761C345.959 79.4579 349.754 78.2527 351.815 75.0691Z" fill="#7C54A7" fill-opacity="0.12"/>
<path d="M365.884 50.267C363.961 54.0053 359.298 55.4134 355.609 53.3004C354.851 52.8646 354.195 52.3097 353.656 51.6705C352.252 50.0062 350.571 48.5973 348.635 47.6024L348.113 47.3335C346.12 46.3088 343.942 45.6963 341.708 45.5183C340.651 45.4349 339.593 45.1195 338.606 44.5534C335.312 42.6632 333.982 38.5159 335.563 35.0627C336.605 32.7867 338.634 31.3053 340.891 30.8654C344.133 30.2352 347.061 28.5052 349.284 26.0601C351.864 23.2196 355.747 20.8268 360.655 23.3522C365.511 25.8505 365.816 30.4177 365.018 34.18C364.325 37.4412 364.721 40.8301 366.071 43.8773C366.945 45.855 366.95 48.1946 365.884 50.267Z" fill="#7C54A7" fill-opacity="0.12"/>
<path d="M347.31 22.379C349.044 19.0067 348.199 15.1148 345.422 13.6863C342.645 12.2577 338.987 13.8334 337.253 17.2057C335.518 20.578 336.363 24.4698 339.14 25.8984C341.918 27.327 345.575 25.7513 347.31 22.379Z" fill="#7C54A7" fill-opacity="0.12"/>
<path d="M363.591 13.962C361.856 17.3344 358.198 18.9113 355.422 17.4831C352.645 16.0534 351.8 12.1627 353.534 8.79026C354.079 7.72976 354.814 6.84763 355.652 6.18005L361.162 5.03492C361.346 5.10182 361.526 5.18061 361.703 5.27092C364.48 6.69881 365.325 10.5913 363.591 13.962Z" fill="#7C54A7" fill-opacity="0.12"/>
<path d="M379.277 38.8214C381.012 35.4491 380.167 31.5573 377.39 30.1287C374.612 28.7001 370.955 30.2758 369.22 33.6481C367.485 37.0204 368.331 40.9122 371.108 42.3408C373.885 43.7694 377.543 42.1937 379.277 38.8214Z" fill="#7C54A7" fill-opacity="0.12"/>
<path d="M376.654 20.6661C378.388 17.2938 377.543 13.402 374.766 11.9734C371.989 10.5448 368.331 12.1205 366.597 15.4928C364.862 18.8651 365.707 22.757 368.484 24.1855C371.261 25.6141 374.919 24.0384 376.654 20.6661Z" fill="#7C54A7" fill-opacity="0.12"/>
<path d="M399.42 72.0867L405.891 103.227C403.733 104.361 401.051 104.412 398.751 103.094C397.993 102.66 397.336 102.103 396.797 101.464C395.394 99.8015 393.713 98.3926 391.776 97.396L391.255 97.1288C389.261 96.1024 387.084 95.4916 384.85 95.3136C383.792 95.2285 382.735 94.9148 381.746 94.3473C378.452 92.4589 377.121 88.3098 378.703 84.8566C379.745 82.5806 381.774 81.0992 384.031 80.6593C387.273 80.0291 390.201 78.2992 392.422 75.8544C394.18 73.9214 396.542 72.1929 399.42 72.0867Z" fill="#7C54A7" fill-opacity="0.12"/>
<path d="M289.062 161.961C285.797 164.61 280.962 164.02 278.436 160.602C277.916 159.899 277.539 159.126 277.304 158.324C276.688 156.237 275.717 154.27 274.344 152.58L273.976 152.125C272.563 150.384 270.817 148.947 268.843 147.884C267.909 147.381 267.068 146.669 266.391 145.751C264.136 142.696 264.589 138.362 267.425 135.838C269.296 134.174 271.748 133.635 273.991 134.141C277.212 134.869 280.59 134.465 283.608 133.121C287.112 131.56 291.631 130.933 295.107 135.219C298.547 139.459 296.988 143.762 294.741 146.887C292.794 149.593 291.794 152.856 291.802 156.19C291.808 158.349 290.872 160.495 289.062 161.961Z" fill="#7C54A7" fill-opacity="0.12"/>
<path d="M283.278 128.967C286.223 126.579 287.016 122.676 285.049 120.25C283.082 117.825 279.099 117.795 276.154 120.183C273.209 122.572 272.416 126.475 274.383 128.9C276.35 131.326 280.333 131.356 283.278 128.967Z" fill="#7C54A7" fill-opacity="0.12"/>
<path d="M301.585 127.814C304.53 125.425 305.323 121.523 303.355 119.097C301.388 116.671 297.406 116.642 294.461 119.03C291.515 121.419 290.722 125.322 292.69 127.747C294.657 130.173 298.639 130.203 301.585 127.814Z" fill="#7C54A7" fill-opacity="0.12"/>
<path d="M305.92 156.888C308.866 154.499 309.659 150.596 307.691 148.171C305.724 145.745 301.742 145.715 298.797 148.104C295.851 150.493 295.058 154.396 297.026 156.821C298.993 159.247 302.975 159.277 305.92 156.888Z" fill="#7C54A7" fill-opacity="0.12"/>
<path d="M310.828 139.212C313.773 136.823 314.566 132.921 312.599 130.495C310.632 128.069 306.649 128.04 303.704 130.428C300.759 132.817 299.966 136.72 301.933 139.145C303.9 141.571 307.883 141.601 310.828 139.212Z" fill="#7C54A7" fill-opacity="0.12"/>
<path d="M102.141 191.797C98.2234 193.326 93.7964 191.294 92.4318 187.268C92.1507 186.439 92.0286 185.59 92.0471 184.753C92.0956 182.577 91.7685 180.409 90.9767 178.38L90.7631 177.833C89.9482 175.745 88.7204 173.845 87.1641 172.232C86.4285 171.469 85.8424 170.534 85.4782 169.454C84.2607 165.857 86.0101 161.868 89.4803 160.327C91.7694 159.31 94.2693 159.544 96.2515 160.709C99.0977 162.382 102.439 163.024 105.723 162.663C109.537 162.243 114.031 163.02 116.038 168.161C118.024 173.248 115.228 176.871 112.138 179.163C109.461 181.147 107.514 183.951 106.509 187.128C105.858 189.192 104.312 190.949 102.141 191.797Z" fill="#7C54A7" fill-opacity="0.12"/>
<path d="M106.656 158.589C110.188 157.21 112.131 153.734 110.996 150.824C109.86 147.915 106.076 146.675 102.543 148.054C99.0111 149.433 97.0681 152.909 98.2038 155.818C99.3394 158.727 103.124 159.968 106.656 158.589Z" fill="#7C54A7" fill-opacity="0.12"/>
<path d="M124.443 163.062C127.976 161.683 129.919 158.207 128.783 155.298C127.648 152.389 123.863 151.149 120.331 152.528C116.799 153.907 114.856 157.383 115.991 160.292C117.127 163.201 120.911 164.441 124.443 163.062Z" fill="#7C54A7" fill-opacity="0.12"/>
<path d="M119.728 192.073C123.26 190.694 125.203 187.218 124.068 184.309C122.932 181.4 119.148 180.16 115.615 181.539C112.083 182.918 110.14 186.394 111.276 189.303C112.411 192.212 116.196 193.452 119.728 192.073Z" fill="#7C54A7" fill-opacity="0.12"/>
<path d="M129.779 176.732C133.312 175.353 135.255 171.877 134.119 168.968C132.983 166.059 129.199 164.818 125.667 166.197C122.134 167.576 120.191 171.052 121.327 173.961C122.463 176.871 126.247 178.111 129.779 176.732Z" fill="#7C54A7" fill-opacity="0.12"/>
<path d="M171.766 226.791C167.849 228.32 163.422 226.288 162.057 222.262C161.776 221.433 161.654 220.584 161.673 219.747C161.721 217.571 161.394 215.403 160.602 213.374L160.389 212.827C159.574 210.739 158.346 208.839 156.79 207.226C156.054 206.463 155.47 205.528 155.104 204.448C153.886 200.851 155.636 196.862 159.106 195.321C161.395 194.304 163.895 194.538 165.877 195.702C168.723 197.375 172.065 198.018 175.348 197.657C179.162 197.237 183.657 198.014 185.663 203.154C187.649 208.241 184.853 211.865 181.764 214.157C179.086 216.141 177.139 218.945 176.134 222.122C175.482 224.186 173.936 225.945 171.766 226.791Z" fill="#7C54A7" fill-opacity="0.12"/>
<path d="M176.277 193.58C179.81 192.201 181.753 188.725 180.617 185.816C179.481 182.907 175.697 181.667 172.165 183.046C168.632 184.425 166.689 187.901 167.825 190.81C168.961 193.719 172.745 194.959 176.277 193.58Z" fill="#7C54A7" fill-opacity="0.12"/>
<path d="M194.066 198.053C197.599 196.674 199.542 193.198 198.406 190.289C197.27 187.38 193.486 186.14 189.954 187.519C186.421 188.898 184.478 192.374 185.614 195.283C186.75 198.192 190.534 199.432 194.066 198.053Z" fill="#7C54A7" fill-opacity="0.12"/>
<path d="M189.349 227.065C192.882 225.686 194.825 222.21 193.689 219.301C192.553 216.392 188.769 215.151 185.237 216.53C181.704 217.909 179.761 221.385 180.897 224.294C182.033 227.204 185.817 228.444 189.349 227.065Z" fill="#7C54A7" fill-opacity="0.12"/>
<path d="M199.402 211.723C202.935 210.344 204.878 206.868 203.742 203.959C202.606 201.05 198.822 199.809 195.29 201.188C191.757 202.567 189.814 206.043 190.95 208.952C192.086 211.862 195.87 213.102 199.402 211.723Z" fill="#7C54A7" fill-opacity="0.12"/>
<path d="M239.816 235.536C235.612 235.431 232.316 231.845 232.614 227.604C232.675 226.732 232.891 225.899 233.231 225.135C234.119 223.147 234.655 221.022 234.709 218.844L234.723 218.259C234.778 216.017 234.383 213.791 233.569 211.701C233.186 210.714 233.007 209.624 233.088 208.488C233.357 204.7 236.513 201.696 240.31 201.618C242.814 201.566 245.029 202.748 246.407 204.588C248.387 207.232 251.219 209.117 254.386 210.054C258.064 211.14 261.91 213.596 261.771 219.112C261.636 224.571 257.657 226.833 253.921 227.751C250.684 228.545 247.804 230.379 245.649 232.919C244.25 234.571 242.145 235.594 239.816 235.536Z" fill="#7C54A7" fill-opacity="0.12"/>
<path d="M263.853 201.199C263.931 198.077 260.921 195.47 257.13 195.375C253.339 195.281 250.203 197.735 250.125 200.857C250.047 203.979 253.057 206.587 256.848 206.681C260.639 206.776 263.776 204.321 263.853 201.199Z" fill="#7C54A7" fill-opacity="0.12"/>
<path d="M278.528 212.203C278.606 209.081 275.596 206.474 271.805 206.379C268.014 206.285 264.878 208.739 264.8 211.861C264.722 214.983 267.732 217.591 271.523 217.685C275.314 217.78 278.45 215.325 278.528 212.203Z" fill="#7C54A7" fill-opacity="0.12"/>
<path d="M262.958 237.136C263.036 234.014 260.026 231.407 256.235 231.312C252.444 231.218 249.308 233.672 249.23 236.794C249.152 239.916 252.162 242.523 255.953 242.618C259.744 242.712 262.88 240.258 262.958 237.136Z" fill="#7C54A7" fill-opacity="0.12"/>
<path d="M278.164 226.876C278.242 223.753 275.232 221.146 271.441 221.051C267.65 220.957 264.514 223.411 264.436 226.533C264.358 229.655 267.368 232.263 271.159 232.357C274.95 232.452 278.086 229.998 278.164 226.876Z" fill="#7C54A7" fill-opacity="0.12"/>
<path d="M196.081 169.047C191.877 168.943 188.581 165.356 188.879 161.116C188.941 160.243 189.154 159.411 189.496 158.647C190.384 156.659 190.92 154.533 190.974 152.355L190.988 151.77C191.043 149.528 190.648 147.303 189.834 145.213C189.451 144.225 189.272 143.136 189.354 141.999C189.622 138.211 192.778 135.207 196.576 135.129C199.08 135.077 201.294 136.259 202.673 138.099C204.652 140.743 207.484 142.628 210.651 143.565C214.33 144.651 218.175 147.107 218.037 152.623C217.901 158.082 213.922 160.344 210.186 161.262C206.949 162.056 204.069 163.89 201.914 166.431C200.515 168.082 198.411 169.105 196.081 169.047Z" fill="#7C54A7" fill-opacity="0.12"/>
<path d="M220.118 134.706C220.196 131.584 217.186 128.977 213.395 128.882C209.604 128.788 206.468 131.242 206.39 134.364C206.312 137.486 209.322 140.094 213.113 140.188C216.904 140.283 220.041 137.828 220.118 134.706Z" fill="#7C54A7" fill-opacity="0.12"/>
<path d="M234.793 145.71C234.871 142.588 231.861 139.981 228.07 139.886C224.279 139.792 221.143 142.246 221.065 145.368C220.987 148.49 223.997 151.098 227.788 151.192C231.579 151.287 234.715 148.832 234.793 145.71Z" fill="#7C54A7" fill-opacity="0.12"/>
<path d="M219.223 170.643C219.301 167.521 216.291 164.914 212.5 164.819C208.709 164.725 205.572 167.179 205.495 170.301C205.417 173.423 208.427 176.03 212.218 176.125C216.009 176.219 219.145 173.765 219.223 170.643Z" fill="#7C54A7" fill-opacity="0.12"/>
<path d="M234.427 160.383C234.505 157.261 231.495 154.653 227.704 154.559C223.913 154.464 220.777 156.918 220.699 160.04C220.621 163.162 223.631 165.77 227.422 165.864C231.213 165.959 234.35 163.505 234.427 160.383Z" fill="#7C54A7" fill-opacity="0.12"/>
</svg>
