<svg width="16" height="16" viewBox="0 0 10 11" fill="none" xmlns="http://www.w3.org/2000/svg">
<path d="M8.72 0.66C8.90667 0.806666 9.03333 0.946666 9.1 1.08C9.16667 1.2 9.17333 1.34 9.12 1.5C9.06667 1.64667 8.94667 1.82667 8.76 2.04L2.44 9.82C2.26667 10.02 2.11333 10.1533 1.98 10.22C1.84667 10.3 1.71333 10.32 1.58 10.28C1.46 10.24 1.31333 10.1533 1.14 10.02C0.966667 9.87333 0.846667 9.74 0.78 9.62C0.726667 9.48667 0.726667 9.34667 0.78 9.2C0.846667 9.05333 0.966667 8.87333 1.14 8.66L7.46 0.879999C7.72667 0.586666 7.94 0.426666 8.1 0.4C8.26 0.36 8.46667 0.446666 8.72 0.66ZM1.18 0.66C1.35333 0.526666 1.5 0.44 1.62 0.4C1.75333 0.36 1.88 0.38 2 0.459999C2.12 0.54 2.26 0.68 2.42 0.879999L8.74 8.66C8.92667 8.87333 9.04667 9.05333 9.1 9.2C9.16667 9.34667 9.16667 9.48667 9.1 9.62C9.04667 9.74 8.92667 9.87333 8.74 10.02C8.58 10.1533 8.43333 10.24 8.3 10.28C8.18 10.32 8.05333 10.3 7.92 10.22C7.78667 10.1533 7.63333 10.02 7.46 9.82L1.14 2.04C0.953333 1.82667 0.833333 1.64667 0.78 1.5C0.726667 1.34 0.726667 1.2 0.78 1.08C0.846667 0.946666 0.98 0.806666 1.18 0.66Z" fill="black"/>
</svg>
