<svg width="24" height="24" viewBox="0 0 24 24" fill="none" xmlns="http://www.w3.org/2000/svg">
<path d="M8.50194 8.49999C8.6972 8.30473 9.01379 8.30473 9.20905 8.49999L12.002 11.2929L14.7949 8.49999C14.9901 8.30473 15.3067 8.30473 15.502 8.49999C15.6972 8.69525 15.6972 9.01184 15.502 9.2071L12.7091 12L15.5019 14.7929C15.6972 14.9882 15.6972 15.3047 15.5019 15.5C15.3067 15.6953 14.9901 15.6953 14.7948 15.5L12.002 12.7071L9.20907 15.5C9.01381 15.6953 8.69723 15.6953 8.50197 15.5C8.3067 15.3047 8.3067 14.9882 8.50197 14.7929L11.2948 12L8.50194 9.2071C8.47754 9.18269 8.45618 9.15639 8.43787 9.12866C8.30973 8.93459 8.33109 8.67085 8.50194 8.49999Z" fill="#FF917A"/>
<path fill-rule="evenodd" clip-rule="evenodd" d="M22.002 12C22.002 17.5228 17.5248 22 12.002 22C6.47911 22 2.00195 17.5228 2.00195 12C2.00195 6.47715 6.47911 2 12.002 2C17.5248 2 22.002 6.47715 22.002 12ZM21.002 12C21.002 16.9706 16.9725 21 12.002 21C7.03139 21 3.00195 16.9706 3.00195 12C3.00195 7.02944 7.03139 3 12.002 3C16.9725 3 21.002 7.02944 21.002 12Z" fill="#FF917A"/>
</svg>
