<svg width="70" height="70" viewBox="0 0 70 70" fill="none" xmlns="http://www.w3.org/2000/svg">
<path d="M35 69.1026C53.8343 69.1026 69.1026 53.8344 69.1026 35C69.1026 16.1657 53.8343 0.897461 35 0.897461C16.1657 0.897461 0.89743 16.1657 0.89743 35C0.89743 53.8344 16.1657 69.1026 35 69.1026Z" fill="#FFD4EA"/>
<path d="M36.2371 69.0782C54.4981 68.4266 69.1026 53.4202 69.1026 35.0002C69.1026 34.351 69.0826 33.7063 69.0469 33.066L51.9716 15.9907H19.9089V33.6251L29.5044 43.2206L20.8461 53.6871L36.2371 69.0782Z" fill="#FFB8EB"/>
<path d="M35.0004 24.176C35.0045 24.176 35.0078 24.0448 35.0078 23.8829C35.0078 23.7211 35.0045 23.5898 35.0004 23.5898C34.9963 23.5898 34.9929 23.7211 34.9929 23.8829C34.9929 24.0448 34.9963 24.176 35.0004 24.176Z" fill="black"/>
<path d="M38.4157 30.1004C39.5937 30.852 40.9622 31.2509 42.3595 31.2498C46.4216 31.2498 49.7262 27.945 49.7262 23.8829C49.7262 19.8209 46.4214 16.5161 42.3595 16.5161C40.9622 16.515 39.5937 16.9138 38.4157 17.6655C39.476 19.4958 40.0837 21.6196 40.0837 23.8829C40.0837 26.1462 39.476 28.27 38.4157 30.1004ZM31.5846 17.6656C30.4066 16.914 29.0382 16.5152 27.6409 16.5162C23.5788 16.5162 20.2742 19.821 20.2742 23.8831C20.2742 27.9451 23.579 31.2499 27.6409 31.2499C29.0383 31.251 30.4067 30.8522 31.5847 30.1005C30.5243 28.2702 29.9167 26.1464 29.9167 23.8831C29.9166 21.6198 30.5242 19.496 31.5846 17.6656Z" fill="black"/>
<path d="M38.4158 17.6655C36.4377 18.9248 35.0983 21.0999 35.0002 23.5899C35.0041 23.6873 35.0077 23.7846 35.0077 23.883C35.0077 23.9813 35.0041 24.0786 35.0002 24.176C34.9022 26.666 33.5627 28.8412 31.5846 30.1004C30.4067 30.8521 29.0382 31.2509 27.6409 31.2498C23.5788 31.2498 20.2742 27.945 20.2742 23.883C20.2742 19.8209 23.5788 16.5161 27.6409 16.5161C29.0382 16.515 30.4066 16.9138 31.5845 17.6655C32.4491 16.1745 33.6119 14.8779 35.0001 13.8564C32.9376 12.3384 30.3923 11.4402 27.6407 11.4402C20.7797 11.4402 15.198 17.0219 15.198 23.883C15.198 29.8745 19.4548 34.8901 25.1028 36.0652V48.6108H20.8463V53.6869H25.1029V57.8873H30.179V53.6869H34.4355V48.6108H30.179V36.0649C31.9528 35.6956 33.5895 34.9478 35.0002 33.9095C36.3885 32.8881 37.5512 31.5914 38.4158 30.1004C39.4761 28.2701 40.0838 26.1463 40.0838 23.883C40.0838 21.6197 39.4761 19.4959 38.4158 17.6655Z" fill="#FF5F96"/>
<path d="M27.6408 16.5161C29.0381 16.515 30.4065 16.9138 31.5844 17.6655C32.4491 16.1745 33.6118 14.8779 35 13.8564C32.9375 12.3384 30.3922 11.4402 27.6407 11.4402C27.6164 11.4402 27.5923 11.441 27.5681 11.4411V16.5181C27.5926 16.5177 27.6165 16.5161 27.6408 16.5161Z" fill="#FF5F96"/>
<path d="M38.4156 17.6655C36.4375 18.9248 35.0981 21.0999 35 23.5899C35.0039 23.6873 35.0075 23.7847 35.0075 23.883C35.0075 23.9813 35.0039 24.0787 35 24.1761C34.902 26.6661 33.5625 28.8412 31.5844 30.1004C30.4065 30.8521 29.038 31.2509 27.6407 31.2498C27.6163 31.2498 27.5923 31.2482 27.5681 31.2479V57.8874H30.1788V53.6869H34.4353V48.6108H30.1788V36.0649C31.9526 35.6957 33.5893 34.9478 35 33.9095C36.3882 32.8881 37.551 31.5914 38.4156 30.1004C39.4758 28.2701 40.0836 26.1463 40.0836 23.883C40.0836 21.6197 39.4758 19.4959 38.4156 17.6655Z" fill="#A0167A"/>
<path d="M54.8022 23.883C54.8022 17.0219 49.2205 11.4402 42.3595 11.4402C39.608 11.4402 37.0626 12.3386 35.0001 13.8564C33.6119 14.8779 32.4492 16.1745 31.5845 17.6655C30.5243 19.4959 29.9166 21.6197 29.9166 23.883C29.9166 26.1461 30.5243 28.2699 31.5845 30.1004C33.5626 28.8412 34.9021 26.666 35.0001 24.176C34.9962 24.0786 34.9927 23.9813 34.9927 23.883C34.9927 23.7846 34.9962 23.6873 35.0001 23.5899C35.0982 21.0999 36.4376 18.9248 38.4157 17.6655C39.5937 16.9139 40.9621 16.515 42.3595 16.5161C46.4215 16.5161 49.7262 19.8209 49.7262 23.883C49.7262 27.945 46.4215 31.2498 42.3595 31.2498C40.9621 31.2509 39.5937 30.8521 38.4157 30.1004C37.5511 31.5914 36.3884 32.8881 35.0001 33.9095C36.4337 34.966 38.0781 35.7011 39.8214 36.0649V48.6108H35.5647V53.6869H39.8214V57.8873H44.8974V53.6869H49.154V48.6108H44.8974V36.0652C50.5454 34.89 54.8022 29.8744 54.8022 23.883Z" fill="#A0167A"/>
<path d="M54.8023 23.883C54.8023 17.0219 49.2206 11.4402 42.3595 11.4402C42.3369 11.4402 42.3145 11.4414 42.2919 11.4415V16.5175C42.3145 16.5172 42.3369 16.5163 42.3595 16.5163C46.4216 16.5163 49.7262 19.821 49.7262 23.8831C49.7262 27.9452 46.4216 31.2499 42.3595 31.2499C42.3369 31.2499 42.3145 31.2488 42.2919 31.2487V57.8873H44.8975V53.6869H49.1541V48.6108H44.8975V36.0652C50.5455 34.89 54.8023 29.8744 54.8023 23.883Z" fill="#A00F5A"/>
<path d="M35.0001 13.8565C33.6119 14.878 32.4492 16.1747 31.5845 17.6656C30.5243 19.496 29.9166 21.6198 29.9166 23.8831C29.9166 26.1462 30.5243 28.2701 31.5845 30.1005C33.5626 28.8413 34.9021 26.6662 35.0001 24.1762C34.9962 24.0788 34.9927 23.9814 34.9927 23.8831C34.9927 23.7848 34.9962 23.6874 35.0001 23.59C35.0982 21.1 36.4376 18.9249 38.4157 17.6656C39.5744 16.9267 40.9176 16.5288 42.2918 16.5175V11.4417C39.5664 11.4563 37.0456 12.3511 35.0001 13.8565Z" fill="#A0167A"/>
</svg>
