<svg width="16" height="17" viewBox="0 0 16 17" fill="none" xmlns="http://www.w3.org/2000/svg">
<path d="M7.29329 4.55336C7.52714 4.51751 7.76339 4.49968 7.99996 4.50002C10.12 4.50002 12.1133 6.02669 13.2733 8.50002C13.0959 8.87642 12.8955 9.24155 12.6733 9.59336C12.6027 9.70256 12.5657 9.83001 12.5666 9.96002C12.5681 10.1055 12.6172 10.2465 12.7063 10.3615C12.7954 10.4766 12.9197 10.5593 13.0602 10.597C13.2007 10.6348 13.3497 10.6256 13.4845 10.5707C13.6193 10.5159 13.7324 10.4185 13.8066 10.2934C14.1172 9.80531 14.3871 9.29246 14.6133 8.76002C14.6491 8.67684 14.6675 8.58724 14.6675 8.49669C14.6675 8.40614 14.6491 8.31654 14.6133 8.23336C13.2666 5.10669 10.7333 3.16669 7.99996 3.16669C7.68707 3.16511 7.37468 3.19189 7.06663 3.24669C6.97908 3.26157 6.89532 3.29355 6.82013 3.34081C6.74494 3.38806 6.6798 3.44966 6.62842 3.52209C6.57704 3.59452 6.54042 3.67636 6.52067 3.76294C6.50092 3.84952 6.49841 3.93914 6.51329 4.02669C6.52818 4.11424 6.56016 4.198 6.60741 4.27318C6.65467 4.34837 6.71627 4.41352 6.7887 4.4649C6.86113 4.51628 6.94297 4.55289 7.02955 4.57265C7.11612 4.5924 7.20575 4.59491 7.29329 4.58002V4.55336ZM2.47329 2.02669C2.41114 1.96453 2.33734 1.91522 2.25613 1.88158C2.17491 1.84794 2.08787 1.83063 1.99996 1.83063C1.91205 1.83063 1.82501 1.84794 1.74379 1.88158C1.66258 1.91522 1.58879 1.96453 1.52663 2.02669C1.40109 2.15222 1.33057 2.32249 1.33057 2.50002C1.33057 2.67756 1.40109 2.84782 1.52663 2.97336L3.59329 5.03336C2.65034 5.94104 1.89987 7.02935 1.38663 8.23336C1.34992 8.31747 1.33097 8.40825 1.33097 8.50002C1.33097 8.59179 1.34992 8.68258 1.38663 8.76669C2.73329 11.8934 5.26663 13.8334 7.99996 13.8334C9.19803 13.8251 10.3678 13.4684 11.3666 12.8067L13.5266 14.9734C13.5886 15.0358 13.6623 15.0854 13.7436 15.1193C13.8248 15.1531 13.912 15.1706 14 15.1706C14.088 15.1706 14.1751 15.1531 14.2563 15.1193C14.3376 15.0854 14.4113 15.0358 14.4733 14.9734C14.5358 14.9114 14.5854 14.8376 14.6192 14.7564C14.6531 14.6752 14.6705 14.588 14.6705 14.5C14.6705 14.412 14.6531 14.3249 14.6192 14.2436C14.5854 14.1624 14.5358 14.0887 14.4733 14.0267L2.47329 2.02669ZM6.71329 8.15336L8.34663 9.78669C8.23395 9.819 8.11717 9.83472 7.99996 9.83336C7.64634 9.83336 7.3072 9.69288 7.05715 9.44283C6.8071 9.19278 6.66663 8.85364 6.66663 8.50002C6.66526 8.38281 6.68098 8.26603 6.71329 8.15336ZM7.99996 12.5C5.87996 12.5 3.88663 10.9734 2.73329 8.50002C3.16402 7.54919 3.77534 6.69107 4.53329 5.97336L5.71329 7.16669C5.43613 7.67255 5.33045 8.25465 5.41213 8.82566C5.49381 9.39667 5.75844 9.9258 6.16631 10.3337C6.57419 10.7415 7.10332 11.0062 7.67432 11.0879C8.24533 11.1695 8.82743 11.0639 9.33329 10.7867L10.3933 11.8334C9.66736 12.2606 8.84224 12.4904 7.99996 12.5Z" fill="#3E3E40"/>
</svg>
