<svg width="70" height="70" viewBox="0 0 70 70" fill="none" xmlns="http://www.w3.org/2000/svg">
<path d="M34.9998 69.1026C53.8342 69.1026 69.1024 53.8344 69.1024 35C69.1024 16.1657 53.8342 0.897461 34.9998 0.897461C16.1655 0.897461 0.897278 16.1657 0.897278 35C0.897278 53.8344 16.1655 69.1026 34.9998 69.1026Z" fill="#A3D4FF"/>
<path d="M69.1026 35C69.1026 34.3247 69.0808 33.6548 69.042 32.9893L47.2815 11.2288L36.0602 16.091L39.0727 19.1035L31.2507 26.6073L13.8541 27.0932L14.7344 45.7347L37.9719 68.9723C55.4143 67.4662 69.1026 52.8328 69.1026 35Z" fill="#65B1FC"/>
<path d="M26.5889 48.2112C26.8038 50.0031 27.5949 51.7383 28.967 53.1106C32.2209 56.3643 37.5152 56.3643 40.7689 53.1106C44.0228 49.8567 44.0228 44.5624 40.7689 41.3087C39.3936 39.9334 37.6536 39.1418 35.8575 38.9291C35.2724 41.0835 34.136 43.1181 32.4474 44.8066C30.7638 46.4901 28.7362 47.6247 26.5889 48.2112ZM28.6507 41.6437C28.762 41.5439 28.8706 41.4411 28.9764 41.3354C29.0848 41.2266 29.1903 41.1149 29.2926 41.0003C29.1813 41.1001 29.0727 41.2029 28.9669 41.3085C28.8585 41.4174 28.7531 41.5292 28.6507 41.6437ZM31.3545 34.4329C31.1396 32.641 30.3485 30.9057 28.9764 29.5336C25.7225 26.2798 20.4282 26.2798 17.1745 29.5336C13.9207 32.7873 13.9206 38.0817 17.1745 41.3354C18.5498 42.7107 20.2898 43.5023 22.0859 43.715C22.671 41.5606 23.8076 39.526 25.496 37.8375C27.1795 36.154 29.2071 35.0194 31.3545 34.4329Z" fill="black"/>
<path d="M28.6508 41.6439C26.9976 43.4883 26.3115 45.897 26.5891 48.2114C28.7365 47.6247 30.7641 46.4902 32.4477 44.8066C34.1361 43.1181 35.2727 41.0834 35.8578 38.9291C33.5432 38.655 31.1354 39.3441 29.2929 41.0004C29.1905 41.115 29.0851 41.2267 28.9767 41.3356C28.8708 41.4412 28.7622 41.544 28.6508 41.6439Z" fill="#1B3B6B"/>
<path d="M54.2036 34.2344L59.1123 34.2139L59.0657 23.0128L47.8646 22.9663L47.8443 27.8751L50.7203 27.8869L42.3421 36.2651C40.4932 35.0019 38.3938 34.2571 36.2492 34.0343C34.6071 33.8634 32.9477 33.9986 31.3549 34.433C29.2075 35.0197 27.1799 36.1543 25.4963 37.8378C23.8079 39.5263 22.6713 41.5609 22.0862 43.7153C24.4008 43.9895 26.8086 43.3004 28.6511 41.644C28.7535 41.5294 28.859 41.4177 28.9675 41.3088C29.0733 41.2032 29.1819 41.1005 29.2932 41.0006C31.1357 39.3442 33.5435 38.6551 35.8581 38.9292C37.6543 39.142 39.3943 39.9335 40.7696 41.3088C44.0235 44.5626 44.0234 49.8569 40.7696 53.1107C37.5158 56.3644 32.2215 56.3646 28.9677 53.1107C27.5955 51.7386 26.8045 50.0033 26.5896 48.2114C24.9969 48.6457 23.3374 48.7809 21.6954 48.6101C22.0023 51.5233 23.2689 54.3539 25.4967 56.5817C30.6645 61.7495 39.073 61.7495 44.2408 56.5817C48.8156 52.0069 49.3396 44.8927 45.8145 39.7351L54.1919 31.3577L54.2036 34.2344Z" fill="#2864F0"/>
<path d="M26.5894 48.2117C24.9967 48.646 23.3372 48.7812 21.6952 48.6104C22.0016 51.5188 23.2647 54.3445 25.4857 56.5707L28.9567 53.0997C27.5914 51.7293 26.8036 49.9987 26.5894 48.2117Z" fill="#2864F0"/>
<path d="M59.0653 23.0129L40.7578 41.298L40.7691 41.3088C44.023 44.5626 44.0229 49.8568 40.7691 53.1107C37.5153 56.3644 32.221 56.3646 28.9673 53.1107L28.9565 53.0994L25.4855 56.5704L25.4963 56.5817C30.664 61.7495 39.0725 61.7495 44.2403 56.5817C48.8151 52.0069 49.3392 44.8927 45.8141 39.7351L54.1914 31.3577L54.2034 34.2345L59.1121 34.214L59.0653 23.0129Z" fill="#27488F"/>
<path d="M26.5893 48.2113C26.3118 45.8969 26.9978 43.4883 28.651 41.6438C26.8085 43.3002 24.4008 43.9893 22.0861 43.7151C21.6542 45.3085 21.5215 46.9683 21.6949 48.61C23.3313 48.78 24.9932 48.6474 26.5893 48.2113Z" fill="#1B3B6B"/>
<path d="M42.4191 22.4505L47.3277 22.43L47.2811 11.2289L36.08 11.1824L36.0598 16.0911L38.936 16.103L30.5499 24.4889C25.3923 20.9638 18.2781 21.4879 13.7031 26.0627C8.5354 31.2304 8.5354 39.639 13.7031 44.8066C15.9361 47.0395 18.7743 48.3068 21.6945 48.6101C21.5211 46.9683 21.6538 45.3086 22.0857 43.7152C20.2896 43.5024 18.5496 42.7109 17.1743 41.3356C13.9204 38.0818 13.9205 32.7875 17.1743 29.5337C20.4281 26.2798 25.7224 26.2798 28.9762 29.5337C30.3483 30.9058 31.1394 32.6411 31.3543 34.433C32.947 33.9987 34.6065 33.8635 36.2485 34.0343C36.0233 31.8965 35.2791 29.8042 34.0197 27.9611L42.4068 19.5741L42.4191 22.4505Z" fill="#0053BF"/>
<path d="M13.7035 44.8065C15.9365 47.0394 18.7747 48.3066 21.6949 48.61C21.5215 46.9682 21.6542 45.3085 22.0861 43.7151C20.29 43.5023 18.55 42.7108 17.1747 41.3355L17.1693 41.3299L13.6982 44.801C13.6999 44.8029 13.7017 44.8047 13.7035 44.8065ZM47.2814 11.2288L28.971 29.5283L28.9766 29.5336C30.3487 30.9057 31.1398 32.641 31.3547 34.4329C32.9474 33.9986 34.6069 33.8634 36.2489 34.0342C36.0237 31.8964 35.2795 29.8041 34.0201 27.961L42.4072 19.574L42.4192 22.4505L47.3279 22.43L47.2814 11.2288Z" fill="#1B3B6B"/>
</svg>
