<svg width="71" height="20" viewBox="0 0 71 20" fill="none" xmlns="http://www.w3.org/2000/svg">
<path d="M8.33146 16.1061V11.9395H11.6648V16.1061C11.6648 16.5645 12.0398 16.9395 12.4981 16.9395H14.9981C15.4565 16.9395 15.8315 16.5645 15.8315 16.1061V10.2728H17.2481C17.6315 10.2728 17.8148 9.7978 17.5231 9.5478L10.5565 3.2728C10.2398 2.98947 9.75646 2.98947 9.4398 3.2728L2.47313 9.5478C2.1898 9.7978 2.3648 10.2728 2.74813 10.2728H4.1648V16.1061C4.1648 16.5645 4.5398 16.9395 4.99813 16.9395H7.49813C7.95646 16.9395 8.33146 16.5645 8.33146 16.1061Z" fill="#7C54A7"/>
<path d="M25.24 7C25.2867 7 25.3333 7.01 25.38 7.03C25.4333 7.05 25.4767 7.08333 25.51 7.13L28.27 11.27L28 11.26L30.77 7.13C30.8433 7.03 30.9333 6.98667 31.04 7C31.12 7 31.1867 7.03 31.24 7.09C31.3 7.14333 31.33 7.21333 31.33 7.3V13.7C31.33 13.78 31.3 13.85 31.24 13.91C31.18 13.97 31.1067 14 31.02 14C30.9267 14 30.85 13.97 30.79 13.91C30.73 13.85 30.7 13.78 30.7 13.7V7.91L30.88 7.93L28.35 11.76C28.33 11.8 28.3 11.8333 28.26 11.86C28.22 11.88 28.1733 11.8867 28.12 11.88C28.0733 11.8867 28.0267 11.88 27.98 11.86C27.94 11.8333 27.9067 11.8 27.88 11.76L25.34 7.89L25.53 7.76V13.7C25.53 13.78 25.5 13.85 25.44 13.91C25.3867 13.97 25.3167 14 25.23 14C25.1433 14 25.0733 13.97 25.02 13.91C24.9667 13.85 24.94 13.78 24.94 13.7V7.3C24.94 7.22 24.9667 7.15 25.02 7.09C25.08 7.03 25.1533 7 25.24 7ZM35.3715 14.1C34.8582 14.1 34.4048 13.99 34.0115 13.77C33.6182 13.55 33.3115 13.2433 33.0915 12.85C32.8715 12.4567 32.7615 11.9967 32.7615 11.47C32.7615 10.9033 32.8715 10.42 33.0915 10.02C33.3182 9.62 33.6082 9.31333 33.9615 9.1C34.3215 8.88 34.7015 8.77 35.1015 8.77C35.3948 8.77 35.6782 8.82333 35.9515 8.93C36.2315 9.03 36.4782 9.18333 36.6915 9.39C36.9115 9.59 37.0848 9.83667 37.2115 10.13C37.3448 10.4233 37.4182 10.7633 37.4315 11.15C37.4248 11.23 37.3915 11.3 37.3315 11.36C37.2715 11.4133 37.2015 11.44 37.1215 11.44H33.1115L32.9915 10.9H36.9315L36.8015 11.02V10.82C36.7748 10.5067 36.6748 10.24 36.5015 10.02C36.3282 9.8 36.1182 9.63333 35.8715 9.52C35.6248 9.40667 35.3682 9.35 35.1015 9.35C34.9015 9.35 34.6948 9.39 34.4815 9.47C34.2748 9.55 34.0848 9.67667 33.9115 9.85C33.7448 10.0167 33.6082 10.2333 33.5015 10.5C33.3948 10.76 33.3415 11.07 33.3415 11.43C33.3415 11.8233 33.4215 12.18 33.5815 12.5C33.7415 12.82 33.9715 13.0733 34.2715 13.26C34.5782 13.4467 34.9415 13.54 35.3615 13.54C35.5948 13.54 35.8048 13.5067 35.9915 13.44C36.1782 13.3733 36.3415 13.2867 36.4815 13.18C36.6215 13.0667 36.7382 12.95 36.8315 12.83C36.9048 12.77 36.9782 12.74 37.0515 12.74C37.1182 12.74 37.1748 12.7667 37.2215 12.82C37.2748 12.8733 37.3015 12.9333 37.3015 13C37.3015 13.08 37.2682 13.15 37.2015 13.21C37.0015 13.45 36.7415 13.66 36.4215 13.84C36.1015 14.0133 35.7515 14.1 35.3715 14.1ZM42.5358 8.92C42.6224 8.92 42.6924 8.95 42.7458 9.01C42.8058 9.07 42.8358 9.14 42.8358 9.22V12.04C42.8358 12.7 42.6491 13.2033 42.2758 13.55C41.9024 13.8967 41.3991 14.07 40.7658 14.07C40.1391 14.07 39.6391 13.8967 39.2658 13.55C38.8991 13.2033 38.7158 12.7 38.7158 12.04V9.22C38.7158 9.14 38.7424 9.07 38.7958 9.01C38.8558 8.95 38.9291 8.92 39.0158 8.92C39.1024 8.92 39.1724 8.95 39.2258 9.01C39.2858 9.07 39.3158 9.14 39.3158 9.22V12.04C39.3158 12.52 39.4424 12.8867 39.6958 13.14C39.9558 13.3867 40.3124 13.51 40.7658 13.51C41.2258 13.51 41.5858 13.3867 41.8458 13.14C42.1058 12.8867 42.2358 12.52 42.2358 12.04V9.22C42.2358 9.14 42.2624 9.07 42.3158 9.01C42.3691 8.95 42.4424 8.92 42.5358 8.92ZM44.1191 13.19C44.0658 13.11 44.0391 13.0333 44.0391 12.96C44.0458 12.88 44.0891 12.8167 44.1691 12.77C44.2225 12.7233 44.2825 12.7033 44.3491 12.71C44.4225 12.7167 44.4891 12.75 44.5491 12.81C44.7291 13.0433 44.9458 13.2333 45.1991 13.38C45.4591 13.52 45.7658 13.59 46.1191 13.59C46.3058 13.59 46.4891 13.56 46.6691 13.5C46.8558 13.4333 47.0091 13.3367 47.1291 13.21C47.2491 13.0767 47.3091 12.91 47.3091 12.71C47.3091 12.5033 47.2491 12.3367 47.1291 12.21C47.0091 12.0833 46.8525 11.9833 46.6591 11.91C46.4725 11.8367 46.2725 11.7733 46.0591 11.72C45.8325 11.66 45.6125 11.5933 45.3991 11.52C45.1858 11.44 44.9958 11.3433 44.8291 11.23C44.6691 11.11 44.5391 10.9667 44.4391 10.8C44.3391 10.6333 44.2891 10.43 44.2891 10.19C44.2891 9.91 44.3658 9.66333 44.5191 9.45C44.6725 9.23667 44.8791 9.07 45.1391 8.95C45.4058 8.83 45.7058 8.77 46.0391 8.77C46.2058 8.77 46.3858 8.79333 46.5791 8.84C46.7725 8.88 46.9625 8.95 47.1491 9.05C47.3358 9.15 47.5025 9.28667 47.6491 9.46C47.7091 9.52 47.7391 9.59 47.7391 9.67C47.7391 9.74333 47.7058 9.81 47.6391 9.87C47.5858 9.91 47.5225 9.93 47.4491 9.93C47.3825 9.93 47.3258 9.90333 47.2791 9.85C47.1191 9.67 46.9291 9.53333 46.7091 9.44C46.4891 9.34667 46.2525 9.3 45.9991 9.3C45.8058 9.3 45.6225 9.33333 45.4491 9.4C45.2825 9.46 45.1425 9.55333 45.0291 9.68C44.9158 9.80667 44.8591 9.97333 44.8591 10.18C44.8725 10.3733 44.9391 10.53 45.0591 10.65C45.1858 10.77 45.3491 10.87 45.5491 10.95C45.7558 11.03 45.9858 11.1033 46.2391 11.17C46.4525 11.2233 46.6558 11.2867 46.8491 11.36C47.0491 11.4333 47.2225 11.5267 47.3691 11.64C47.5225 11.7467 47.6425 11.8833 47.7291 12.05C47.8225 12.2167 47.8691 12.4267 47.8691 12.68C47.8691 12.9733 47.7858 13.2267 47.6191 13.44C47.4591 13.6533 47.2425 13.8167 46.9691 13.93C46.6958 14.0433 46.3925 14.1 46.0591 14.1C45.6991 14.1 45.3491 14.03 45.0091 13.89C44.6758 13.75 44.3791 13.5167 44.1191 13.19ZM54.651 7C55.0243 7 55.3543 7.08667 55.641 7.26C55.9277 7.42667 56.1543 7.66 56.321 7.96C56.4877 8.26 56.571 8.60333 56.571 8.99C56.571 9.37667 56.4877 9.72667 56.321 10.04C56.1543 10.3467 55.9277 10.59 55.641 10.77C55.3543 10.95 55.0243 11.04 54.651 11.04H52.531L52.581 10.94V13.7C52.581 13.78 52.551 13.85 52.491 13.91C52.431 13.97 52.361 14 52.281 14C52.1877 14 52.1143 13.97 52.061 13.91C52.0077 13.85 51.981 13.78 51.981 13.7V7.3C51.981 7.22 52.011 7.15 52.071 7.09C52.131 7.03 52.201 7 52.281 7H54.651ZM54.651 10.46C54.911 10.46 55.1377 10.3967 55.331 10.27C55.5243 10.1367 55.6743 9.96 55.781 9.74C55.8943 9.51333 55.951 9.26333 55.951 8.99C55.951 8.71667 55.8943 8.47667 55.781 8.27C55.6743 8.05667 55.5243 7.89 55.331 7.77C55.1377 7.65 54.911 7.59 54.651 7.59H52.531L52.581 7.5V10.52L52.521 10.46H54.651ZM60.0004 14.1C59.4871 14.1 59.0337 13.99 58.6404 13.77C58.2471 13.55 57.9404 13.2433 57.7204 12.85C57.5004 12.4567 57.3904 11.9967 57.3904 11.47C57.3904 10.9033 57.5004 10.42 57.7204 10.02C57.9471 9.62 58.2371 9.31333 58.5904 9.1C58.9504 8.88 59.3304 8.77 59.7304 8.77C60.0237 8.77 60.3071 8.82333 60.5804 8.93C60.8604 9.03 61.1071 9.18333 61.3204 9.39C61.5404 9.59 61.7137 9.83667 61.8404 10.13C61.9737 10.4233 62.0471 10.7633 62.0604 11.15C62.0537 11.23 62.0204 11.3 61.9604 11.36C61.9004 11.4133 61.8304 11.44 61.7504 11.44H57.7404L57.6204 10.9H61.5604L61.4304 11.02V10.82C61.4037 10.5067 61.3037 10.24 61.1304 10.02C60.9571 9.8 60.7471 9.63333 60.5004 9.52C60.2537 9.40667 59.9971 9.35 59.7304 9.35C59.5304 9.35 59.3237 9.39 59.1104 9.47C58.9037 9.55 58.7137 9.67667 58.5404 9.85C58.3737 10.0167 58.2371 10.2333 58.1304 10.5C58.0237 10.76 57.9704 11.07 57.9704 11.43C57.9704 11.8233 58.0504 12.18 58.2104 12.5C58.3704 12.82 58.6004 13.0733 58.9004 13.26C59.2071 13.4467 59.5704 13.54 59.9904 13.54C60.2237 13.54 60.4337 13.5067 60.6204 13.44C60.8071 13.3733 60.9704 13.2867 61.1104 13.18C61.2504 13.0667 61.3671 12.95 61.4604 12.83C61.5337 12.77 61.6071 12.74 61.6804 12.74C61.7471 12.74 61.8037 12.7667 61.8504 12.82C61.9037 12.8733 61.9304 12.9333 61.9304 13C61.9304 13.08 61.8971 13.15 61.8304 13.21C61.6304 13.45 61.3704 13.66 61.0504 13.84C60.7304 14.0133 60.3804 14.1 60.0004 14.1ZM63.0147 8.91H65.3447C65.4247 8.91 65.4914 8.94 65.5447 9C65.598 9.05333 65.6247 9.12 65.6247 9.2C65.6247 9.27333 65.598 9.33667 65.5447 9.39C65.4914 9.44333 65.4247 9.47 65.3447 9.47H63.0147C62.9347 9.47 62.8647 9.44333 62.8047 9.39C62.7514 9.33 62.7247 9.26333 62.7247 9.19C62.7247 9.11 62.7514 9.04333 62.8047 8.99C62.8647 8.93667 62.9347 8.91 63.0147 8.91ZM64.0447 7.5C64.1314 7.5 64.2014 7.53 64.2547 7.59C64.3147 7.65 64.3447 7.72 64.3447 7.8V12.82C64.3447 13.0067 64.368 13.1467 64.4147 13.24C64.468 13.3333 64.5347 13.3967 64.6147 13.43C64.6947 13.4567 64.7747 13.47 64.8547 13.47C64.908 13.47 64.9547 13.4633 64.9947 13.45C65.0414 13.43 65.0914 13.42 65.1447 13.42C65.2047 13.42 65.2547 13.4433 65.2947 13.49C65.3414 13.5367 65.3647 13.5967 65.3647 13.67C65.3647 13.7633 65.3114 13.8433 65.2047 13.91C65.098 13.97 64.9714 14 64.8247 14C64.7647 14 64.6747 13.9967 64.5547 13.99C64.4347 13.9767 64.3114 13.94 64.1847 13.88C64.058 13.8133 63.9514 13.7 63.8647 13.54C63.7847 13.38 63.7447 13.15 63.7447 12.85V7.8C63.7447 7.72 63.7714 7.65 63.8247 7.59C63.8847 7.53 63.958 7.5 64.0447 7.5ZM66.6387 13.19C66.5853 13.11 66.5587 13.0333 66.5587 12.96C66.5653 12.88 66.6087 12.8167 66.6887 12.77C66.742 12.7233 66.802 12.7033 66.8687 12.71C66.942 12.7167 67.0087 12.75 67.0687 12.81C67.2487 13.0433 67.4653 13.2333 67.7187 13.38C67.9787 13.52 68.2853 13.59 68.6387 13.59C68.8253 13.59 69.0087 13.56 69.1887 13.5C69.3753 13.4333 69.5287 13.3367 69.6487 13.21C69.7687 13.0767 69.8287 12.91 69.8287 12.71C69.8287 12.5033 69.7687 12.3367 69.6487 12.21C69.5287 12.0833 69.372 11.9833 69.1787 11.91C68.992 11.8367 68.792 11.7733 68.5787 11.72C68.352 11.66 68.132 11.5933 67.9187 11.52C67.7053 11.44 67.5153 11.3433 67.3487 11.23C67.1887 11.11 67.0587 10.9667 66.9587 10.8C66.8587 10.6333 66.8087 10.43 66.8087 10.19C66.8087 9.91 66.8853 9.66333 67.0387 9.45C67.192 9.23667 67.3987 9.07 67.6587 8.95C67.9253 8.83 68.2253 8.77 68.5587 8.77C68.7253 8.77 68.9053 8.79333 69.0987 8.84C69.292 8.88 69.482 8.95 69.6687 9.05C69.8553 9.15 70.022 9.28667 70.1687 9.46C70.2287 9.52 70.2587 9.59 70.2587 9.67C70.2587 9.74333 70.2253 9.81 70.1587 9.87C70.1053 9.91 70.042 9.93 69.9687 9.93C69.902 9.93 69.8453 9.90333 69.7987 9.85C69.6387 9.67 69.4487 9.53333 69.2287 9.44C69.0087 9.34667 68.772 9.3 68.5187 9.3C68.3253 9.3 68.142 9.33333 67.9687 9.4C67.802 9.46 67.662 9.55333 67.5487 9.68C67.4353 9.80667 67.3787 9.97333 67.3787 10.18C67.392 10.3733 67.4587 10.53 67.5787 10.65C67.7053 10.77 67.8687 10.87 68.0687 10.95C68.2753 11.03 68.5053 11.1033 68.7587 11.17C68.972 11.2233 69.1753 11.2867 69.3687 11.36C69.5687 11.4333 69.742 11.5267 69.8887 11.64C70.042 11.7467 70.162 11.8833 70.2487 12.05C70.342 12.2167 70.3887 12.4267 70.3887 12.68C70.3887 12.9733 70.3053 13.2267 70.1387 13.44C69.9787 13.6533 69.762 13.8167 69.4887 13.93C69.2153 14.0433 68.912 14.1 68.5787 14.1C68.2187 14.1 67.8687 14.03 67.5287 13.89C67.1953 13.75 66.8987 13.5167 66.6387 13.19Z" fill="#7C54A7"/>
</svg>
