<svg width="37" height="37" viewBox="0 0 37 37" fill="none" xmlns="http://www.w3.org/2000/svg">
<path d="M25.4552 25.9949C26.4087 25.9949 27.2129 26.0296 28.011 25.9768C28.2947 25.9572 28.6583 25.7958 28.8243 25.577C29.3071 24.9403 29.7552 24.2659 30.1263 23.5598C30.4688 22.908 30.2561 22.5368 29.5409 22.3407C29.0581 22.2079 28.5723 22.0661 28.0789 21.9891C27.1284 21.8413 26.285 21.6466 26.2096 20.4155C26.196 20.1846 25.7705 19.8361 25.4914 19.7878C23.9706 19.5193 22.9597 18.9248 23.0396 17.1203C23.0759 16.2905 22.6579 15.4758 21.9081 14.8662C20.7644 15.779 20.1081 16.9604 19.8667 18.3108C19.6419 19.5721 19.2737 20.8877 20.0643 22.1234C20.1337 22.232 20.1111 22.4221 20.0855 22.567C19.8818 23.6986 19.666 24.8271 19.2677 25.9738C18.9086 24.7803 18.5088 23.5975 18.2055 22.3889C18.0531 21.7794 18.0124 21.1231 18.0366 20.4909C18.0984 18.9309 17.7831 17.5066 16.7405 16.209C15.6452 16.8171 15.0462 17.7872 14.675 18.8871C14.4713 19.4906 14.1726 19.7561 13.5374 19.8602C11.7344 20.156 10.9091 21.615 10.1608 23.0242C9.69155 23.9083 10.8488 25.2526 12.0648 25.4186C12.4239 25.4668 12.7815 25.5317 13.2115 25.5996C12.6533 27.0918 12.1961 28.501 11.6016 29.8498C11.0691 31.0553 8.83607 31.5095 7.49478 30.7807C5.85022 29.886 5.18032 28.421 5.05811 26.6316C4.89064 24.1768 5.69481 22.0148 7.15229 20.1032C10.0114 16.3539 13.6702 13.875 18.45 13.3122C21.0978 12.9999 23.6326 13.4616 25.9184 14.8466C30.1882 17.4372 33.0051 21.1186 33.8696 26.105C34.0431 27.1099 34.0024 28.2535 33.6976 29.2192C32.818 32.0074 30.1203 32.1733 27.7591 30.7943C27.0062 30.3553 26.46 29.7382 26.2684 28.8163C26.0813 27.9126 25.763 27.0375 25.4552 25.9949Z" fill="#7C54A7"/>
<path d="M12.1341 0.51628C13.4467 0.621894 14.791 1.26463 15.5288 2.72663C16.5307 4.70916 16.671 6.77164 15.5424 8.77529C14.61 10.4319 12.813 10.8272 11.2138 9.7922C9.364 8.59423 8.03326 5.33831 8.50098 3.15663C8.86007 1.48793 10.132 0.478561 12.1341 0.51628Z" fill="#7C54A7"/>
<path d="M19.7066 5.88444C19.6297 4.13578 20.1397 2.57118 21.2682 1.22687C22.5778 -0.333202 24.8365 -0.420697 26.2472 1.05186C27.5613 2.42334 27.9596 4.0362 27.2837 5.83315C26.6968 7.39473 25.8066 8.73603 24.2375 9.49796C22.0815 10.545 19.9284 9.33049 19.7112 6.93607C19.6795 6.58754 19.7066 6.23448 19.7066 5.88444Z" fill="#7C54A7"/>
<path d="M32.2173 15.6372C30.3555 15.6221 29.2662 14.1948 29.7731 12.3933C30.2031 10.8649 31.0661 9.63531 32.4421 8.80398C33.6793 8.05563 34.8713 8.02998 35.8097 8.78587C36.899 9.66398 37.1857 10.8634 36.8915 12.1731C36.466 14.0756 34.2859 15.6538 32.2173 15.6372Z" fill="#7C54A7"/>
<path d="M4.85283 17.2667C3.10417 17.0584 1.44905 16.2271 0.401963 14.4528C-0.163826 13.4947 -0.139689 12.4537 0.521152 11.5424C1.33438 10.4214 2.53687 10.0442 3.84799 10.2614C5.81392 10.5873 7.56862 12.6559 7.70139 14.6474C7.8055 16.2045 6.72673 17.2938 4.85283 17.2667Z" fill="#7C54A7"/>
<path d="M25.2666 36.3223C23.9661 36.1141 24.0158 34.7924 23.1513 34.2538C23.2343 34.9131 23.3112 35.5166 23.4003 36.2318C22.9552 36.2921 22.5116 36.354 21.9956 36.4234C21.9956 34.9282 21.9956 33.5371 21.9956 32.14C23.2418 31.8201 23.2162 33.2233 24.0173 33.5643C23.9751 33.0543 23.9344 32.573 23.8876 32.0072C24.307 32.0419 24.6465 32.0691 25.072 32.1038C25.1338 33.4692 25.1972 34.8105 25.2666 36.3223Z" fill="#7C54A7"/>
<path d="M13.9387 34.1542C13.9372 35.3899 13.0636 36.3314 11.9321 36.3178C10.8261 36.3042 10.0008 35.3793 10.0084 34.1603C10.0144 32.9517 10.8518 32.0133 11.9426 31.9906C13.0787 31.968 13.9402 32.9004 13.9387 34.1542ZM12.7996 34.293C12.78 33.7468 12.6065 33.2852 12.0211 33.2625C11.4055 33.2384 11.1535 33.6971 11.1098 34.2478C11.0645 34.8317 11.4598 35.2767 11.9758 35.2451C12.5748 35.2073 12.7634 34.8 12.7996 34.293Z" fill="#7C54A7"/>
<path d="M20.4505 36.259C20.1804 35.7159 19.936 35.224 19.6916 34.7306C19.6011 34.7502 19.512 34.7699 19.4215 34.7895C19.3974 35.2572 19.3732 35.7249 19.3476 36.2303C19.0398 36.2303 18.7501 36.2303 18.3578 36.2303C18.3578 34.9765 18.3503 33.7333 18.3699 32.4916C18.3714 32.3619 18.5329 32.134 18.64 32.122C19.4638 32.0314 20.3011 31.9469 21.0223 32.4946C21.5534 32.899 21.7013 33.67 21.2004 34.0653C20.5803 34.5526 20.7598 34.9403 21.0932 35.4307C21.2185 35.6133 21.2969 35.8275 21.4237 36.0825C21.0691 36.1474 20.7583 36.2032 20.4505 36.259ZM19.3476 34.0517C19.417 34.1045 19.4879 34.1558 19.5573 34.2086C19.7957 33.9687 20.2332 33.7243 20.2287 33.4874C20.2212 33.0197 19.7897 32.9367 19.2948 33.0227C19.3144 33.3908 19.331 33.7213 19.3476 34.0517Z" fill="#7C54A7"/>
<path d="M14.503 32.1869C14.9073 32.2095 15.2755 32.2291 15.6557 32.2487C15.7266 32.988 15.7583 33.6835 15.876 34.364C15.9137 34.5813 16.1762 34.7608 16.3362 34.957C16.5278 34.7593 16.8642 34.5767 16.8853 34.3625C16.9547 33.6488 16.9125 32.9231 16.9125 32.214C17.8283 32.0435 17.94 32.0888 17.8947 32.9005C17.851 33.7167 17.7318 34.539 17.5432 35.3342C17.4029 35.9271 16.9578 36.3315 16.306 36.3737C15.6783 36.4144 15.2876 36.0327 14.9888 35.5348C14.4577 34.6461 14.2646 33.3999 14.503 32.1869Z" fill="#7C54A7"/>
<path d="M29.4714 36.0177C29.0519 36.1263 28.7426 36.2062 28.4348 36.2862C28.4575 36.2259 28.4786 36.1655 28.5012 36.1052C28.1919 35.909 27.8736 35.5454 27.5748 35.559C27.2339 35.5741 26.9064 35.9271 26.5745 36.1323C26.6062 36.2123 26.6364 36.2938 26.6681 36.3737C26.3346 36.3149 26.0012 36.2545 25.5742 36.1791C25.9876 34.8499 26.3723 33.5629 26.8084 32.294C26.8567 32.1537 27.2203 32.0315 27.4149 32.0571C27.6654 32.0903 28.029 32.2276 28.1089 32.4192C28.5887 33.5719 29.0006 34.7518 29.4714 36.0177ZM27.4979 33.5915C27.4511 33.5915 27.4043 33.5931 27.3576 33.5931C27.2701 33.9627 27.1826 34.3339 27.083 34.7518C27.3651 34.7518 27.5718 34.7518 27.86 34.7518C27.7257 34.3203 27.6126 33.9552 27.4979 33.5915Z" fill="#7C54A7"/>
<path d="M20.6346 28.9249C19.3929 29.1286 19.3929 29.1286 19.4291 29.7004C19.7731 29.6793 20.1216 29.6144 20.4596 29.6552C20.6452 29.6778 20.8081 29.8755 20.9832 29.9946C20.8489 30.1621 20.7403 30.4412 20.5788 30.476C19.924 30.6163 19.2511 30.6811 18.5299 30.7822C18.456 29.4213 18.3851 28.0996 18.3081 26.6844C19.1726 26.6014 19.9768 26.526 20.8459 26.443C20.8459 26.8911 20.8459 27.2276 20.8459 27.647C20.4264 27.6953 20.007 27.7239 19.5981 27.8039C19.4729 27.828 19.3763 27.994 19.2677 28.0951C19.3929 28.1811 19.5091 28.3124 19.6464 28.3425C19.8108 28.3788 19.9949 28.3365 20.1699 28.3139C20.6271 28.2535 20.7599 28.4602 20.6346 28.9249Z" fill="#7C54A7"/>
<path d="M6.04927 34.966C6.36008 34.7714 6.63166 34.6009 6.78555 34.5043C7.23215 34.7397 7.57916 34.9237 7.92618 35.1063C8.02123 34.6386 8.21134 34.1648 8.17664 33.7062C8.15551 33.4286 7.78888 33.1781 7.57615 32.9156C7.50825 32.9548 7.44036 32.994 7.37246 33.0333C7.35285 32.819 7.33323 32.6048 7.30758 32.3045C8.08158 32.211 8.81484 32.122 9.83326 31.9998C9.64014 32.4509 9.50737 32.73 9.40176 33.0197C9.33839 33.1947 9.29916 33.3848 9.28407 33.5719C9.2539 33.9461 9.27955 34.3278 9.22523 34.6974C9.10151 35.5439 8.56137 36.1685 7.91863 36.2651C7.12351 36.3827 6.50039 35.9663 6.04927 34.966Z" fill="#7C54A7"/>
<path d="M22.1978 27.6952C21.546 27.6862 21.0074 27.5926 21.2956 26.6994C22.2461 26.633 23.2298 26.5636 24.2708 26.4912C24.2708 26.8458 24.2708 27.1294 24.2708 27.4734C23.515 27.3919 23.3731 27.8038 23.3867 28.4617C23.4018 29.2055 23.2901 29.9523 23.2283 30.7686C22.8813 30.7278 22.569 30.6901 22.1993 30.6464C22.1978 29.6596 22.1978 28.6955 22.1978 27.6952Z" fill="#7C54A7"/>
<path d="M29.9875 36.2424C29.9181 34.8408 29.8533 33.504 29.7854 32.1174C30.1988 32.1174 30.5156 32.1174 30.923 32.1174C30.923 33.0695 30.923 34.0291 30.923 35.049C31.4707 35.0113 31.9278 34.9811 32.3759 34.9509C32.5902 36.179 32.5811 36.1956 31.4284 36.2394C30.9803 36.256 30.5322 36.2424 29.9875 36.2424Z" fill="#7C54A7"/>
</svg>
